<?xml version="1.0" encoding="UTF-8" standalone="no"?>
<svg width="866px" height="548px" viewBox="0 0 866 548" version="1.1" xmlns="http://www.w3.org/2000/svg" xmlns:xlink="http://www.w3.org/1999/xlink" xmlns:sketch="http://www.bohemiancoding.com/sketch/ns">
    <!-- Generator: Sketch 3.3.3 (12081) - http://www.bohemiancoding.com/sketch -->
    <title>Group</title>
    <desc>Created with Sketch.</desc>
    <defs>
        <path id="path-1" d="M152.125,80.6328125 C152.125,80.6328125 -17.1289045,42.734375 31.5625018,108.949219 C80.253908,175.164062 -9.45703139,153.082031 1.14453147,205.996094 C11.7460943,258.910156 116.226564,300.035153 197.039062,239.488281 C277.851561,178.941409 371.96875,196.984375 371.96875,196.984375 C371.96875,196.984375 419.88672,223.960942 477.242187,216.03125 C534.597655,208.101558 601.039064,149.777341 664.066406,164.859375 C727.093748,179.941409 795.496095,189.605466 806.648438,164.117187 C817.80078,138.628909 905.54297,79.5976569 844.480469,53.8828125 C783.417967,28.1679681 515.847656,0.48828125 515.847656,0.48828125 L194.921875,15.7929687 L152.125,80.6328125 Z"></path>
        <linearGradient x1="52.8675835%" y1="-39.0625%" x2="50%" y2="100%" id="linearGradient-3">
            <stop stop-color="#FFCD55" offset="0%"></stop>
            <stop stop-color="#EABC4D" offset="100%"></stop>
        </linearGradient>
    </defs>
    <g id="Page-3" stroke="none" stroke-width="1" fill="none" fill-rule="evenodd" sketch:type="MSPage">
        <g id="Group" sketch:type="MSLayerGroup">
            <g id="Mask-+-Path-2" transform="translate(0.000000, 278.000000)">
                <mask id="mask-2" sketch:name="Mask" fill="white">
                    <use xlink:href="#path-1"></use>
                </mask>
                <use id="Mask" fill="#91BEAE" sketch:type="MSShapeGroup" xlink:href="#path-1"></use>
                <path d="M119.136719,122.003906 L226.871094,230.950562 L451.269531,230.950562 L300.980469,75.734375 L119.136719,122.003906 Z" id="Path-2" opacity="0.200000003" fill="#070707" sketch:type="MSShapeGroup" mask="url(#mask-2)"></path>
                <path d="M626.128927,167.859211 L650.136719,190.898438 L456.964844,225.90625 L304.300781,68.7265625 L491.054688,38.234375 L513.017237,59.3108726 L532.141113,38.234375 L816.824707,111.121094 L752.867676,199.378906 L626.128927,167.859211 Z" id="Path-3" opacity="0.200000003" fill="#0D0D0D" sketch:type="MSShapeGroup" mask="url(#mask-2)"></path>
            </g>
            <g id="Bidon-Copy" transform="translate(636.500000, 255.500000) rotate(103.000000) translate(-636.500000, -255.500000) translate(523.000000, 68.000000)" sketch:type="MSShapeGroup">
                <g id="Group">
                    <ellipse id="Oval-1-Copy" fill="#FFCD55" cx="113.5" cy="345" rx="108.5" ry="30"></ellipse>
                    <ellipse id="Oval-1-Copy-6" fill="#FFCD55" cx="113.5" cy="345" rx="108.5" ry="30"></ellipse>
                    <path d="M113.5,142 C176.184319,142 227,127.89697 227,110.5 C227,93.1030304 199.474609,72.0000005 113.5,72.0000001 C27.5253906,71.9999997 0,93.1030304 0,110.5 C0,127.89697 50.8156809,142 113.5,142 Z" id="Oval-1-Copy-3" fill="#EABC4C"></path>
                    <path d="M113.5,282 C176.184319,282 227,267.89697 227,250.5 C227,233.10303 199.474609,212.000001 113.5,212 C27.5253906,212 0,233.10303 0,250.5 C0,267.89697 50.8156809,282 113.5,282 Z" id="Oval-1-Copy-5" fill="#EABC4C"></path>
                    <rect id="Rectangle-1-Copy" fill="#FFCD55" x="5" y="28.5" width="217" height="318"></rect>
                    <path d="M113.5,282 C176.811523,282 227,267.89697 227,250.5 C227,233.10303 218.453125,271.210938 113.5,271.210938 C8.546875,271.210937 0,233.10303 0,250.5 C0,267.89697 50.1884766,282 113.5,282 Z" id="Oval-1-Copy-4" fill="#EABC4C"></path>
                    <path d="M113.5,142 C176.811523,142 227,127.89697 227,110.5 C227,93.1030304 218.453125,131.210938 113.5,131.210938 C8.546875,131.210937 0,93.1030304 0,110.5 C0,127.89697 50.1884766,142 113.5,142 Z" id="Oval-1-Copy-2" fill="#EABC4C"></path>
                    <path d="M113.5,60 C173.422895,60 222,46.5685425 222,30 C222,13.4314575 173.422895,0 113.5,0 C53.5771046,0 5,13.4314575 5,30 C5,46.5685425 53.5771046,60 113.5,60 Z" id="Oval-1" fill="url(#linearGradient-3)"></path>
                    <path d="M60.5,56 C60.5,56 87.7568359,60.2636719 113.5,60.2636719 C139.243164,60.2636719 166.5,56 166.5,56 L166.5,371.662731 C166.5,371.662731 145.041504,375 114.65625,375 C84.2709961,375 60.4999998,371.863449 60.5,371.863449 C60.5000002,371.863449 60.5,56 60.5,56 Z" id="Rectangle-2" opacity="0.372376399" fill-opacity="0.127377717" fill="#4A4747"></path>
                </g>
                <g id="Oval-8-+-Oval-10" transform="translate(65.000000, 159.000000)" fill="#4A4A4A">
                    <path d="M18.5982539,11.4023 C27.1608718,4.40935636 38.0905122,0.216427703 49.9973158,0.216427703 C61.9472135,0.216427703 72.9128618,4.43976204 81.4892561,11.4783382 L81.4892561,11.4783382 L55.5592094,43.8823615 C54.1186159,42.690601 52.2715982,41.9746695 50.2577325,41.9746695 C48.1408661,41.9746695 46.2083514,42.7657075 44.7384365,44.0689239 L18.5982539,11.4023 Z M0.292711759,51.9523239 C0.991232505,70.7626575 12.0894589,86.90848 27.9934663,94.7835724 L46.3463935,57.7027535 C43.8974015,56.395747 42.1761768,53.8996139 41.9497895,50.9831102 L0.292711759,51.9523239 Z M99.7071507,51.8057432 C99.0610013,70.6787543 87.9464686,86.8880318 72.0011653,94.7835724 L72.0011653,94.7835724 L53.7512409,57.9108636 C56.4594857,56.6558402 58.3817731,53.9867504 58.5750268,50.8487433 L99.7071507,51.8057432 Z" id="Oval-8"></path>
                    <ellipse id="Oval-10" cx="50.2577325" cy="50.3263178" rx="5.72916667" ry="5.74175824"></ellipse>
                </g>
            </g>
            <g id="Bidon" transform="translate(289.000000, 0.000000)" sketch:type="MSShapeGroup">
                <g id="Group">
                    <ellipse id="Oval-1-Copy" fill="#FFCD55" cx="113.5" cy="345" rx="108.5" ry="30"></ellipse>
                    <ellipse id="Oval-1-Copy-6" fill="#FFCD55" cx="113.5" cy="345" rx="108.5" ry="30"></ellipse>
                    <path d="M113.5,142 C176.184319,142 227,127.89697 227,110.5 C227,93.1030304 199.474609,72.0000005 113.5,72.0000001 C27.5253906,71.9999997 0,93.1030304 0,110.5 C0,127.89697 50.8156809,142 113.5,142 Z" id="Oval-1-Copy-3" fill="#EABC4C"></path>
                    <path d="M113.5,282 C176.184319,282 227,267.89697 227,250.5 C227,233.10303 199.474609,212.000001 113.5,212 C27.5253906,212 0,233.10303 0,250.5 C0,267.89697 50.8156809,282 113.5,282 Z" id="Oval-1-Copy-5" fill="#EABC4C"></path>
                    <rect id="Rectangle-1-Copy" fill="#FFCD55" x="5" y="28.5" width="217" height="318"></rect>
                    <path d="M113.5,282 C176.811523,282 227,267.89697 227,250.5 C227,233.10303 218.453125,271.210938 113.5,271.210938 C8.546875,271.210937 0,233.10303 0,250.5 C0,267.89697 50.1884766,282 113.5,282 Z" id="Oval-1-Copy-4" fill="#EABC4C"></path>
                    <path d="M113.5,142 C176.811523,142 227,127.89697 227,110.5 C227,93.1030304 218.453125,131.210938 113.5,131.210938 C8.546875,131.210937 0,93.1030304 0,110.5 C0,127.89697 50.1884766,142 113.5,142 Z" id="Oval-1-Copy-2" fill="#EABC4C"></path>
                    <path d="M113.5,60 C173.422895,60 222,46.5685425 222,30 C222,13.4314575 173.422895,0 113.5,0 C53.5771046,0 5,13.4314575 5,30 C5,46.5685425 53.5771046,60 113.5,60 Z" id="Oval-1" fill="url(#linearGradient-3)"></path>
                    <path d="M60.5,56 C60.5,56 87.7568359,60.2636719 113.5,60.2636719 C139.243164,60.2636719 166.5,56 166.5,56 L166.5,371.662731 C166.5,371.662731 145.041504,375 114.65625,375 C84.2709961,375 60.4999998,371.863449 60.5,371.863449 C60.5000002,371.863449 60.5,56 60.5,56 Z" id="Rectangle-2" opacity="0.372376399" fill-opacity="0.127377717" fill="#4A4747"></path>
                </g>
                <g id="Oval-8-+-Oval-10" transform="translate(65.000000, 159.000000)" fill="#4A4A4A">
                    <path d="M18.5982539,11.4023 C27.1608718,4.40935636 38.0905122,0.216427703 49.9973158,0.216427703 C61.9472135,0.216427703 72.9128618,4.43976204 81.4892561,11.4783382 L81.4892561,11.4783382 L55.5592094,43.8823615 C54.1186159,42.690601 52.2715982,41.9746695 50.2577325,41.9746695 C48.1408661,41.9746695 46.2083514,42.7657075 44.7384365,44.0689239 L18.5982539,11.4023 Z M0.292711759,51.9523239 C0.991232505,70.7626575 12.0894589,86.90848 27.9934663,94.7835724 L46.3463935,57.7027535 C43.8974015,56.395747 42.1761768,53.8996139 41.9497895,50.9831102 L0.292711759,51.9523239 Z M99.7071507,51.8057432 C99.0610013,70.6787543 87.9464686,86.8880318 72.0011653,94.7835724 L72.0011653,94.7835724 L53.7512409,57.9108636 C56.4594857,56.6558402 58.3817731,53.9867504 58.5750268,50.8487433 L99.7071507,51.8057432 Z" id="Oval-8"></path>
                    <ellipse id="Oval-10" cx="50.2577325" cy="50.3263178" rx="5.72916667" ry="5.74175824"></ellipse>
                </g>
            </g>
            <g id="Bidon-Copy-2" transform="translate(114.000000, 50.000000)" sketch:type="MSShapeGroup">
                <g id="Group">
                    <ellipse id="Oval-1-Copy" fill="#FFCD55" cx="113.5" cy="345" rx="108.5" ry="30"></ellipse>
                    <ellipse id="Oval-1-Copy-6" fill="#FFCD55" cx="113.5" cy="345" rx="108.5" ry="30"></ellipse>
                    <path d="M113.5,142 C176.184319,142 227,127.89697 227,110.5 C227,93.1030304 199.474609,72.0000005 113.5,72.0000001 C27.5253906,71.9999997 0,93.1030304 0,110.5 C0,127.89697 50.8156809,142 113.5,142 Z" id="Oval-1-Copy-3" fill="#EABC4C"></path>
                    <path d="M113.5,282 C176.184319,282 227,267.89697 227,250.5 C227,233.10303 199.474609,212.000001 113.5,212 C27.5253906,212 0,233.10303 0,250.5 C0,267.89697 50.8156809,282 113.5,282 Z" id="Oval-1-Copy-5" fill="#EABC4C"></path>
                    <rect id="Rectangle-1-Copy" fill="#FFCD55" x="5" y="28.5" width="217" height="318"></rect>
                    <path d="M113.5,282 C176.811523,282 227,267.89697 227,250.5 C227,233.10303 218.453125,271.210938 113.5,271.210938 C8.546875,271.210937 0,233.10303 0,250.5 C0,267.89697 50.1884766,282 113.5,282 Z" id="Oval-1-Copy-4" fill="#EABC4C"></path>
                    <path d="M113.5,142 C176.811523,142 227,127.89697 227,110.5 C227,93.1030304 218.453125,131.210938 113.5,131.210938 C8.546875,131.210937 0,93.1030304 0,110.5 C0,127.89697 50.1884766,142 113.5,142 Z" id="Oval-1-Copy-2" fill="#EABC4C"></path>
                    <path d="M113.5,60 C173.422895,60 222,46.5685425 222,30 C222,13.4314575 173.422895,0 113.5,0 C53.5771046,0 5,13.4314575 5,30 C5,46.5685425 53.5771046,60 113.5,60 Z" id="Oval-1" fill="url(#linearGradient-3)"></path>
                    <path d="M60.5,56 C60.5,56 87.7568359,60.2636719 113.5,60.2636719 C139.243164,60.2636719 166.5,56 166.5,56 L166.5,371.662731 C166.5,371.662731 145.041504,375 114.65625,375 C84.2709961,375 60.4999998,371.863449 60.5,371.863449 C60.5000002,371.863449 60.5,56 60.5,56 Z" id="Rectangle-2" opacity="0.372376399" fill-opacity="0.127377717" fill="#4A4747"></path>
                </g>
                <g id="Oval-8-+-Oval-10" transform="translate(65.000000, 159.000000)" fill="#4A4A4A">
                    <path d="M18.5982539,11.4023 C27.1608718,4.40935636 38.0905122,0.216427703 49.9973158,0.216427703 C61.9472135,0.216427703 72.9128618,4.43976204 81.4892561,11.4783382 L81.4892561,11.4783382 L55.5592094,43.8823615 C54.1186159,42.690601 52.2715982,41.9746695 50.2577325,41.9746695 C48.1408661,41.9746695 46.2083514,42.7657075 44.7384365,44.0689239 L18.5982539,11.4023 Z M0.292711759,51.9523239 C0.991232505,70.7626575 12.0894589,86.90848 27.9934663,94.7835724 L46.3463935,57.7027535 C43.8974015,56.395747 42.1761768,53.8996139 41.9497895,50.9831102 L0.292711759,51.9523239 Z M99.7071507,51.8057432 C99.0610013,70.6787543 87.9464686,86.8880318 72.0011653,94.7835724 L72.0011653,94.7835724 L53.7512409,57.9108636 C56.4594857,56.6558402 58.3817731,53.9867504 58.5750268,50.8487433 L99.7071507,51.8057432 Z" id="Oval-8"></path>
                    <ellipse id="Oval-10" cx="50.2577325" cy="50.3263178" rx="5.72916667" ry="5.74175824"></ellipse>
                </g>
            </g>
        </g>
    </g>
</svg>