<?xml version="1.0" encoding="UTF-8" standalone="no"?>
<svg width="138px" height="246px" viewBox="0 0 138 246" version="1.1" xmlns="http://www.w3.org/2000/svg" xmlns:xlink="http://www.w3.org/1999/xlink" xmlns:sketch="http://www.bohemiancoding.com/sketch/ns">
    <!-- Generator: Sketch 3.3.3 (12081) - http://www.bohemiancoding.com/sketch -->
    <title>Liquidator aquamarine</title>
    <desc>Created with Sketch.</desc>
    <defs>
        <path d="M59.0615395,52.3360526 C64.0981864,60.1562406 71.7840797,72.436592 71.7840797,74.5533944 C71.7840797,77.7017828 63.3336052,69.5990992 55.9166538,77.1111933 C48.4997024,84.6232874 16.9652865,102.547509 3.16490685,75.1601995 C2.54069495,72.9422736 3.45370611,71.2687218 4.36071429,70.2356801 C0.663143092,61.9411888 0.844635032,50.833872 0.844635032,39.7640862 C0.844635032,17.8029878 8.77793556,0.748478357 30.4068612,0.748478357 C58.7186315,0.748478357 59.9690873,17.8029878 59.9690873,39.7640862 C59.9690873,44.0025345 59.6820042,48.2465298 59.0615395,52.3360526 Z" id="path-1"></path>
    </defs>
    <g id="Page-1" stroke="none" stroke-width="1" fill="none" fill-rule="evenodd" sketch:type="MSPage">
        <g id="Liquidator-aquamarine" sketch:type="MSLayerGroup" transform="translate(-2.000000, 0.000000)">
            <g id="Guantes" transform="translate(0.000000, 124.000000)" sketch:type="MSShapeGroup">
                <path d="M21.5966896,14.4772493 C29.6370837,16.6316664 36.9256257,15.5025663 37.8761039,11.9553336 C38.826582,8.40810093 33.0790695,3.78600054 25.0386754,1.63158344 C16.9982814,-0.522833662 9.70973934,0.606266456 8.75926121,4.15349914 C7.80878308,7.70073182 13.5562956,12.3228322 21.5966896,14.4772493 Z" id="Oval-3-Copy" fill="#104A57"></path>
                <path d="M22.9704988,29.1784997 C21.5450656,30.6513212 9.08161658,24.3961741 9.08161658,24.3961741 L10.532917,4.8357825 L34.8431795,13.2064772 C34.8431795,13.2064772 30.1865782,19.3586485 22.9704988,29.1784997 Z" id="Triangle-1-Copy" fill="#104A57"></path>
                <path d="M10.321404,24.1062776 C10.321404,24.1062776 4.29431263,25.0441079 3.24855251,28.6911068 C2.20279239,32.3381058 1.64681986,36.8925672 1.97207293,38.5768455 C2.29732599,40.2611239 4.75756109,41.7718828 6.40494106,39.84795 C7.7286539,37.1178531 7.75480665,33.0570661 7.75480665,33.0570661 C7.75480665,33.0570661 8.01508676,32.9739036 7.15493953,38.4032444 C6.61893378,40.2725186 10.3095542,42.8149148 11.6267024,40.1991257 C12.9438507,37.5833366 12.581277,36.5183238 12.9437298,36.6222554 C13.3061826,36.7261871 11.9741555,39.5906239 12.1344158,40.8126236 C12.2231275,41.4890597 12.8892264,42.5589806 13.8357786,42.9105485 C14.599198,43.1940973 15.4292824,43.1878013 15.983515,42.5945619 C15.983515,42.5945619 16.9873552,41.2226442 17.5530131,39.2499607 C17.8565817,37.3565405 18.3222757,37.5268333 17.807271,39.3228679 C17.2922664,41.1189026 17.5458177,40.9534885 17.9935674,41.5111709 C19.1330905,42.9304725 21.0011764,42.3735889 21.0011764,42.3735889 C21.0011764,42.3735889 22.7902468,41.1669269 23.9464684,35.7159853 C24.834088,31.5313528 23.95672,28.8871181 23.1239493,28.6483249 C21.2064035,28.0984775 10.321404,24.1062776 10.321404,24.1062776 Z" id="Path-13-Copy" fill="#104A57" transform="translate(13.098547, 33.599488) rotate(-7.000000) translate(-13.098547, -33.599488) "></path>
                <path d="M10.2776498,6.43741197 C10.2776498,6.43741197 12.7894392,11.3163048 22.063496,13.9920355 C9.41045629,10.7169002 10.2776498,6.43741197 10.2776498,6.43741197 Z" id="Path-23" fill="#D8D8D8"></path>
                <path d="M119.538205,24.8178884 C119.538205,24.8178884 114.15395,27.3661876 114.15395,31.1387035 C114.15395,34.9112194 114.855246,39.416871 115.610975,40.9376027 C116.366704,42.4583343 119.072252,43.2280587 120.096802,40.9376027 C120.60255,37.9653044 119.538205,34.0767318 119.538205,34.0767318 C119.538205,34.0767318 119.759286,33.9259058 120.410736,39.3511573 C120.410736,41.2847654 124.54338,42.703333 125.073638,39.8420923 C125.603896,36.9808516 124.97931,36.0622586 125.346093,36.0622586 C125.712876,36.0622586 125.235374,39.1652412 125.712876,40.289336 C125.977197,40.911577 126.886914,41.7516714 127.866264,41.8282794 C128.656136,41.8900657 129.430629,41.6565394 129.789809,40.9376027 C129.789809,40.9376027 130.360618,39.3511573 130.360618,37.3105809 C130.1368,35.4175996 130.617913,35.452733 130.617913,37.3105809 C130.617913,39.1684287 130.810648,38.9408287 131.378851,39.3511573 C132.824928,40.3954434 134.422392,39.3511573 134.422392,39.3511573 C134.422392,39.3511573 135.771749,37.7074528 135.391355,32.1804069 C135.099331,27.93735 133.569951,25.6503902 132.727231,25.6503902 C130.786777,25.6503902 119.538205,24.8178884 119.538205,24.8178884 Z" id="Path-13" fill="#104A57" transform="translate(124.806447, 33.599488) rotate(9.000000) translate(-124.806447, -33.599488) "></path>
                <path d="M132.774378,28.9796661 C131.962121,30.8402816 118.487728,29.2290406 118.487728,29.2290406 L113.29947,10.4567785 L138.305962,10.0202886 C138.305962,10.0202886 136.09903,17.3514862 132.774378,28.9796661 Z" id="Triangle-1" fill="#104A57"></path>
                <path d="M124.661211,13.7622775 C132.758374,13.7622775 139.322422,10.8020724 139.322422,7.15047422 C139.322422,3.49887607 132.758374,0.538670896 124.661211,0.538670896 C116.564048,0.538670896 110,3.49887607 110,7.15047422 C110,10.8020724 116.564048,13.7622775 124.661211,13.7622775 Z" id="Oval-3" fill="#104A57"></path>
                <path d="M112.746324,9.78195543 C112.746324,9.78195543 122.759566,13.7464508 131.893033,11.4003847 C119.625169,14.9203505 112.746324,9.78195543 112.746324,9.78195543 Z" id="Path-23-Copy" fill="#D8D8D8"></path>
            </g>
            <path d="M75.101966,153.661656 C75.526051,153.664825 75.9561098,153.666416 76.3922184,153.666416 C76.7662533,153.666416 77.1354944,153.665501 77.5,153.663661 L77.5,153.663661 L77.5,169.497226 L77.5,204.304838 C77.5,206.496779 79.2885974,208.297187 81.4949442,208.297187 L106.085029,208.297187 C108.281925,208.297187 110.062089,206.50656 110.040029,204.297709 C110.040029,204.297709 109.984099,191.084508 109.185596,173.864913 C108.59479,161.124288 105.684401,146.838178 104.329933,135.037632 C103.89956,129.818252 103.058522,123.322272 103.058522,115.333206 C103.058522,109.57996 103.376299,104.601032 103.614817,100.315569 L103.614817,100.315569 C104.865709,101.987872 105.884499,103.694235 106.489229,105.355717 C110.1903,115.524326 112.750885,128.279895 112.750885,128.279895 C113.225597,130.445797 115.365099,132.474326 117.547759,132.815495 C117.547759,132.815495 117.570752,133.017667 124.561427,133.497544 C131.552102,133.97742 132.589997,133.118154 132.589997,133.118154 C134.753504,132.678595 136.041229,130.454437 135.509505,128.317674 C135.509505,128.317674 130.660645,108.387244 127.159582,98.7681519 C123.820206,89.5932917 114.979699,71.8735502 114.979699,71.8735502 C114.010019,69.896172 111.674978,69.2011334 109.775381,70.3281229 L95.2776278,78.9293269 C91.1472094,77.5883253 85.1211017,77 76.3922184,77 C67.3734922,77 61.3306604,78.156235 57.3264835,80.2386893 L51.638203,74.5014857 C50.0830942,72.9330019 47.5894909,72.9562932 46.0749457,74.5793375 C46.0749457,74.5793375 39.8248181,80.9448504 34.0858697,88.8438353 C28.0690507,97.1252761 12.3702808,125.816821 12.3702808,125.816821 C11.3107965,127.73931 11.9324692,130.306856 13.8168548,131.473955 C13.8168548,131.473955 24.2866266,139.474966 32.6313959,135.335893 C36.2610451,133.535557 36.2974714,128.322442 38.5665697,124.405732 C41.5142571,119.317705 43.9131664,115.864767 47.507123,110.91811 C48.3301004,109.785379 49.4447358,108.717676 50.7429023,107.721519 L50.7429023,107.721519 C50.9285886,110.181645 51.0714239,112.727054 51.0714239,115.333206 C51.0714239,125.684099 46.2944698,135.076787 46.7065848,141.973917 C45.7170408,149.341085 44.105189,161.964955 43.5744362,169.762658 C42.7138653,182.405973 42.7049458,207.066147 42.7049458,207.066147 C42.6957635,209.277964 44.4800697,211.070941 46.6864205,211.070941 L69.0162328,211.070941 C71.2277426,211.070941 73.0971631,209.284441 73.2032233,207.080681 C73.2032233,207.080681 74.6291812,178.73406 75.101966,153.661656 Z" id="Oval-2" fill="#91BEAE" sketch:type="MSShapeGroup"></path>
            <path d="M54.2271484,137 C54.2271484,137 71.2369141,155.658203 96.2291016,138.835938 C67.3931641,147.007812 54.2271484,137 54.2271484,137 Z" id="Path-8" fill-opacity="0.2" fill="#000000" sketch:type="MSShapeGroup"></path>
            <path d="M60.1240348,149 C60.1240348,149 66.7085477,153.579559 79.6001953,153.579559 C69.8621151,151.998616 60.1240348,149 60.1240348,149 Z" id="Path-9" fill-opacity="0.2" fill="#000000" sketch:type="MSShapeGroup"></path>
            <path d="M100.687701,90.9328327 C100.687701,90.9328327 110.29024,102.690645 111.127154,121.132051 C105.907428,100.171602 100.687701,90.9328327 100.687701,90.9328327 Z" id="Path-10" fill-opacity="0.2" fill="#000000" sketch:type="MSShapeGroup" transform="translate(105.907428, 106.032442) rotate(-10.000000) translate(-105.907428, -106.032442) "></path>
            <path d="M50.1152344,122.180311 C50.1152344,122.180311 48.3398438,104.631483 55.8027344,92.9449598 C51.7436524,108.81459 50.1152344,122.180311 50.1152344,122.180311 Z" id="Path-12" fill-opacity="0.2" fill="#000000" sketch:type="MSShapeGroup" transform="translate(52.866717, 107.562636) rotate(-6.000000) translate(-52.866717, -107.562636) "></path>
            <path d="M98.8339843,129.03418 C106.800782,171.401365 99.961295,217.777779 104.45035,244.789554 C114.45865,243.507328 119.766269,239.400638 121.331698,238.555179 C122.218905,221.168216 111.459139,220.980716 109.69742,218.696292 C109.69742,214.555667 110.399176,199.125485 110.064489,199.125485 C109.729802,199.125485 109.69742,182.580322 109.007812,170.100586 C106.194824,146.877197 103.980469,134.658447 103.376221,124.693359 C102.82251,121.932617 98.0405629,124.814789 98.8339843,129.03418 Z" id="Path-18" fill-opacity="0.2" fill="#000000" sketch:type="MSShapeGroup"></path>
            <path d="M103.394045,53.4888987 C108.430691,61.3090867 116.116585,73.5894381 116.116585,75.7062405 C116.116585,78.8546289 107.66611,70.7519453 100.249159,78.2640394 C92.8322074,85.7761334 61.2977915,103.700355 47.4974119,76.3130456 C46.8732,74.0951196 47.7862111,72.4215678 48.6932193,71.3885262 C44.9956481,63.0940348 45.17714,51.986718 45.17714,40.9169323 C45.17714,18.9558339 53.1104406,1.90132443 74.7393662,1.90132443 C103.051137,1.90132443 104.301592,18.9558339 104.301592,40.9169323 C104.301592,45.1553806 104.014509,49.3993759 103.394045,53.4888987 Z" id="Mask-Copy" fill-opacity="0.3" fill="#000000" sketch:type="MSShapeGroup"></path>
            <g id="Casco" transform="translate(44.331055, 0.153453)">
                <mask id="mask-2" sketch:name="Mask" fill="white">
                    <use xlink:href="#path-1"></use>
                </mask>
                <g id="Mask">
                    <use fill="#91BEAE" fill-rule="evenodd" sketch:type="MSShapeGroup" xlink:href="#path-1"></use>
                    <use stroke="none" fill="none" xlink:href="#path-1"></use>
                </g>
                <path d="M-0.0628846067,24.5596548 C-0.0628846067,24.5596548 13.4762167,20.2454224 28.1208572,20.7147497 C29.8429848,20.76994 31.5804002,20.8912794 33.3128847,21.0935623 C35.9381665,21.4000873 38.5521258,21.8924762 41.0844109,22.6222063 C45.544694,38.3684326 45.0583139,57.4654474 45.0583152,63.8178724 C34.7310222,72.4312708 7.52533937,71.4439744 2.15627293,66.4677491 C-2.06236173,58.7621579 -0.0628846067,24.5596548 -0.0628846067,24.5596548 Z" id="Path-Copy-2" fill-opacity="0.49963202" fill="#FA6A31" sketch:type="MSShapeGroup" mask="url(#mask-2)"></path>
                <path d="M-0.482443227,47.0518005 C-0.296002715,56.4962154 0.418763322,65.8158209 2.34501699,69.593125 C8.09043251,75.3099793 37.2031198,76.4442184 48.2543128,66.5488579 C48.2543114,59.2509793 48.7747847,37.3116892 44.0018544,19.2218971 C24.2968656,13.1256817 -0.0296942004,21.4477028 -0.0296942004,21.4477028 C-0.0296942004,21.4477028 -0.546118613,30.9315082 -0.53624537,41.6303079 C-0.538054549,43.4103296 -0.522420789,45.2344834 -0.482443316,47.0517964 Z M-0.482443227,47.0518005 C-0.518280274,45.2364228 -0.534597067,43.4164337 -0.53624537,41.6303079 C-0.527006442,32.5402785 -0.0628846067,24.6011387 -0.0628846067,24.6011387 C-0.0628846067,24.6011387 22.6701823,17.3572507 41.0844109,22.6636902 C45.544694,38.4099164 45.0583139,57.5069312 45.0583152,63.8593562 C34.7310222,72.4727547 7.52533937,71.4854583 2.15627293,66.509233 C0.368140345,63.2431007 -0.302835457,55.2164872 -0.482443316,47.0517964 Z" id="Path-1" fill="#424242" sketch:type="MSShapeGroup" mask="url(#mask-2)"></path>
                <path d="M26.5057856,20.665513 L13.3508424,38.5820537 L21.9176192,45.770689 L3.49154306,67.1513958 L8.67895489,68.8915866 L28.6474798,44.7785498 L19.5746643,37.5929016 C19.5746643,37.5929016 31.3284006,23.5399182 32.3390463,21.2834131" id="Path-19" fill-opacity="0.5" fill="#D8D8D8" sketch:type="MSShapeGroup" mask="url(#mask-2)"></path>
            </g>
            <g id="Zapatos" transform="translate(23.000000, 197.000000)" sketch:type="MSShapeGroup">
                <path d="M59.3000488,41.4445801 L66.7644043,38.9573364 L66.5177793,30.4299927 L59.3000488,33.8601074 L59.3000488,41.4445801 Z" id="Path-17" fill="#B1A49A"></path>
                <path d="M52.4356806,37.9502722 L53.0660517,0 C53.0660517,0 69.9716647,9.79948008 87.9521334,1.47037809 C87.9521334,13.580766 87.9521348,23.6662925 87.9521348,23.6662925 C87.9521348,23.6662925 107.320299,28.5367889 104.503893,42.1727739 C76.6502073,59.0908782 59.4560411,35.8583382 59.4560411,35.8583382 L59.4560411,42.1727739 L52.4356806,37.9502722 Z" id="Path-6" fill="#424242"></path>
                <path d="M45.4633789,41.4663086 L38.6083984,38.6591797 L38.8217773,30.8730469 L45.4633789,34.6108398 L45.4633789,41.4663086 Z" id="Path-16" fill="#B1A49A"></path>
                <path d="M0.103508636,37.9502722 L0.73387973,0 C0.73387973,0 16.3575484,8.329102 34.3380172,0 C34.3380172,12.1103879 34.3380186,22.6279108 34.3380186,22.6279108 C34.3380186,22.6279108 54.9881269,28.5367889 52.1717207,42.1727739 C24.3180353,59.0908782 7.12386911,35.8583382 7.12386911,35.8583382 L7.12386911,42.1727739 L0.103508636,37.9502722 Z" id="Path-6-Copy" fill="#424242" transform="translate(26.269595, 24.171862) scale(-1, 1) translate(-26.269595, -24.171862) "></path>
                <path d="M18.2853499,19.9189243 C18.2853499,19.9189243 26.6440183,26.566091 23.9479476,34.2602329 C24.6530257,34.2602329 28.811411,27.0895786 18.2853499,19.9189243 Z" id="Path-15" fill-opacity="0.2" fill="#D8D8D8" transform="translate(21.816653, 27.089579) rotate(-46.000000) translate(-21.816653, -27.089579) "></path>
                <path d="M75.1214187,18.42469 C75.1214187,18.42469 83.480087,25.0718567 80.7840163,32.7659986 C81.4890945,32.7659986 85.6474797,25.5953443 75.1214187,18.42469 Z" id="Path-15-Copy" fill-opacity="0.2" fill="#D8D8D8" transform="translate(78.652722, 25.595344) rotate(-101.000000) translate(-78.652722, -25.595344) "></path>
            </g>
            <path d="M92.1007747,11.5513188 C86.7764396,4.29782098 75.0373324,0.919853376 75.0373324,0.919853376 C75.0373324,0.919853376 95.2343384,-0.947928704 101.540232,14.9685446 C105.061882,28.5000433 104.673795,34.8254109 103.425814,52.4551913 C107.967376,59.850789 107.646926,59.2836714 115.948104,73.3852767 C124.203505,91.3261408 125.252931,92.0454124 133.517092,121.211916 L135.585451,129.010737 C135.585451,129.010737 136.312013,133.804194 128.295412,133.804194 C125.57633,115.012864 112.469162,74.4559748 108.282053,73.9698921 C106.173352,65.6231209 99.0475686,60.7938547 97.4251098,53.6888577 C96.7491551,46.845016 97.4251098,18.8048165 92.1007747,11.5513188 Z" id="Path-14" fill-opacity="0.2" fill="#000000" sketch:type="MSShapeGroup"></path>
            <path d="M55.2568359,75.8222656 C55.2568359,75.8222656 71.0537109,91.015625 89.3310547,77.7382812 C70.0913086,87.2534178 55.2568359,75.8222656 55.2568359,75.8222656 Z" id="Path-69" fill-opacity="0.2" fill="#000000" sketch:type="MSShapeGroup" transform="translate(72.293945, 79.501379) rotate(-3.000000) translate(-72.293945, -79.501379) "></path>
        </g>
    </g>
</svg>