<?xml version="1.0" encoding="UTF-8" standalone="no"?>
<svg width="150px" height="259px" viewBox="0 0 150 259" version="1.1" xmlns="http://www.w3.org/2000/svg" xmlns:xlink="http://www.w3.org/1999/xlink" xmlns:sketch="http://www.bohemiancoding.com/sketch/ns">
    <!-- Generator: Sketch 3.3.3 (12081) - http://www.bohemiancoding.com/sketch -->
    <title>Liquidator yellow</title>
    <desc>Created with Sketch.</desc>
    <defs>
        <path d="M69.9255149,59.885455 C75.8886193,68.8336942 84.9882812,82.885469 84.9882812,85.3076172 C84.9882812,88.9101562 74.9833984,79.6386719 66.2021484,88.234375 C57.4208984,96.8300781 20.0859375,117.339844 3.74707031,86.0019531 C3.0080388,83.4640944 4.08899226,81.5491351 5.16283853,80.3670787 C0.785123831,70.8761186 1,58.1665869 1,45.5 C1,20.3710439 10.3925781,0.856445312 36,0.856445312 C69.5195312,0.856445312 71,20.3710439 71,45.5 C71,50.3498386 70.6601099,55.2060242 69.9255149,59.885455 Z" id="path-1"></path>
    </defs>
    <g id="Page-1" stroke="none" stroke-width="1" fill="none" fill-rule="evenodd" sketch:type="MSPage">
        <g id="Liquidator-yellow" sketch:type="MSLayerGroup" transform="translate(-2.000000, 0.000000)">
            <g id="Guantes" transform="translate(0.000000, 131.000000)" sketch:type="MSShapeGroup">
                <path d="M127.659898,15.9319314 C128.639237,13.8377717 144.22811,15.9319313 144.22811,15.9319313 L149.86321,37.3254336 L120.86321,37.3254336 C120.86321,37.3254336 123.570165,29.0543563 127.659898,15.9319314 Z" id="Triangle-1" fill="#104A57" transform="translate(135.363210, 26.163314) rotate(-181.000000) translate(-135.363210, -26.163314) "></path>
                <path d="M135,19 C144.388841,19 152,15.6421356 152,11.5 C152,7.35786438 144.388841,4 135,4 C125.611159,4 118,7.35786438 118,11.5 C118,15.6421356 125.611159,19 135,19 Z" id="Oval-3" fill="#104A57"></path>
                <path d="M25.6381181,19.9070628 C35.0269589,19.9070628 42.6381181,16.5491984 42.6381181,12.4070628 C42.6381181,8.26492715 35.0269589,4.90706278 25.6381181,4.90706278 C16.2492774,4.90706278 8.63811811,8.26492715 8.63811811,12.4070628 C8.63811811,16.5491984 16.2492774,19.9070628 25.6381181,19.9070628 Z" id="Oval-3-Copy" fill="#104A57" transform="translate(25.638118, 12.407063) rotate(15.000000) translate(-25.638118, -12.407063) "></path>
                <path d="M13.5905979,13.820048 C14.5699371,11.7258883 30.15881,13.8200479 30.15881,13.8200479 L35.7939101,35.2135502 L6.79391005,35.2135502 C6.79391005,35.2135502 9.50086458,26.9424729 13.5905979,13.820048 Z" id="Triangle-1-Copy" fill="#104A57" transform="translate(21.293910, 24.051430) rotate(-161.000000) translate(-21.293910, -24.051430) "></path>
                <path d="M128.79126,30.9628906 C128.79126,30.9628906 122.548096,33.8535156 122.548096,38.1328125 C122.548096,42.4121094 123.361264,47.5230277 124.237549,49.2480469 C125.113834,50.973066 128.250977,51.8461914 129.438965,49.2480469 C130.025391,45.8764648 128.79126,41.4655209 128.79126,41.4655209 C128.79126,41.4655209 129.047607,41.2944336 129.802979,47.4484863 C129.802979,49.6418457 134.594871,51.2509766 135.209717,48.0053711 C135.824563,44.7597656 135.100342,43.7177734 135.525635,43.7177734 C135.950928,43.7177734 135.397253,47.2375952 135.950928,48.5126953 C136.257413,49.2185251 137.312251,50.1714736 138.447829,50.2583727 C139.363703,50.3284591 140.261745,50.063562 140.678223,49.2480469 C140.678223,49.2480469 141.340088,47.4484863 141.340088,45.1337891 C141.080566,42.9865141 141.638428,43.0263672 141.638428,45.1337891 C141.638428,47.2412109 141.861908,46.9830363 142.520752,47.4484863 C144.19751,48.6330566 146.049805,47.4484863 146.049805,47.4484863 C146.049805,47.4484863 147.614415,45.5839748 147.17334,39.3144531 C146.834731,34.5014051 145.061381,31.9072266 144.084229,31.9072266 C141.834229,31.9072266 128.79126,30.9628906 128.79126,30.9628906 Z" id="Path-13" fill="#104A57"></path>
                <path d="M9.4602357,30.3648842 C9.4602357,30.3648842 3.21707164,33.2555092 3.21707164,37.5348061 C3.21707164,41.814103 4.03023972,46.9250214 4.90652476,48.6500405 C5.78280981,50.3750596 8.9199525,51.248185 10.1079408,48.6500405 C10.6943666,45.2784585 9.4602357,40.8675145 9.4602357,40.8675145 C9.4602357,40.8675145 9.71658336,40.6964272 10.4719544,46.8504799 C10.4719544,49.0438393 15.2638465,50.6529702 15.8786927,47.4073647 C16.493539,44.1617592 15.7693177,43.1197671 16.1946107,43.1197671 C16.6199037,43.1197671 16.0662293,46.6395888 16.6199037,47.9146889 C16.9263893,48.6205187 17.9812265,49.5734672 19.116805,49.6603663 C20.032679,49.7304527 20.9307213,49.4655556 21.3471986,48.6500405 C21.3471986,48.6500405 22.0090638,46.8504799 22.0090638,44.5357827 C21.7495423,42.3885077 22.3074037,42.4283608 22.3074037,44.5357827 C22.3074037,46.6432046 22.5308839,46.3850299 23.1897279,46.8504799 C24.8664857,48.0350503 26.7187806,46.8504799 26.7187806,46.8504799 C26.7187806,46.8504799 28.2833909,44.9859684 27.8423158,38.7164467 C27.5037069,33.9033987 25.7303567,31.3092202 24.7532044,31.3092202 C22.5032044,31.3092202 9.4602357,30.3648842 9.4602357,30.3648842 Z" id="Path-13-Copy" fill="#104A57" transform="translate(15.568879, 40.326160) rotate(16.000000) translate(-15.568879, -40.326160) "></path>
                <path d="M11.7714222,9.50075371 C11.7714222,9.50075371 13.605893,15.4121154 23.3833009,20.2007049 C9.96997071,14.0844939 11.7714222,9.50075371 11.7714222,9.50075371 Z" id="Path-23" fill="#D8D8D8" transform="translate(17.536981, 14.850729) rotate(-10.000000) translate(-17.536981, -14.850729) "></path>
                <path d="M123.363334,7.58573685 C123.363334,7.58573685 129.110096,18.4314772 138.887504,23.2200666 C125.474174,17.1038557 123.363334,7.58573685 123.363334,7.58573685 Z" id="Path-23-Copy" fill="#D8D8D8" transform="translate(131.125419, 15.402902) rotate(-41.000000) translate(-131.125419, -15.402902) "></path>
            </g>
            <path d="M79.94161,171.673135 C80.4546729,171.678066 80.9741206,171.675865 81.5,171.666416 L81.5,182.497226 L81.5,217.304838 C81.5,219.496779 83.2919078,221.297187 85.502338,221.297187 L116.972929,221.297187 C119.176519,221.297187 120.953598,219.50656 120.926869,217.297709 C120.926869,217.297709 120.859102,204.084508 119.891602,186.864913 C119.078102,172.386224 117.163629,155.68803 117.163629,143.697265 C117.136608,143.697928 117.109592,143.698598 117.082581,143.699277 C117.703815,140.412432 118,136.937765 118,133.333208 C118,131.078393 117.81463,128.869047 117.459021,126.721064 L117.459023,126.721076 C119.32142,133.393509 120.369115,138.773336 120.369115,138.773336 C120.838709,140.937556 122.907614,143.198158 125.012014,143.830497 C125.012014,143.830497 125.810612,144.838454 134.601563,144.663084 C143.392514,144.487714 145.937164,143.244171 145.937164,143.244171 C148.075625,142.694328 149.408776,140.422519 148.945443,138.277664 C148.945443,138.277664 144.725674,118.087843 141.22461,108.468751 C137.885234,99.2938913 128.406569,81.7914615 128.406569,81.7914615 C127.368028,79.8329037 124.952244,79.1086632 123.00967,80.1528668 L93.8757402,95.8134037 C93.3247924,96.109558 92.9291671,96.4600879 92.6892475,96.8347783 C89.1632023,95.6434208 85.4031473,95 81.5,95 C76.29268,95 71.3400515,96.1452328 66.8580116,98.2089579 L53.27637,84.9738581 C51.6968694,83.4346592 49.1602885,83.4648319 47.6333279,85.053585 C47.6333279,85.053585 41.239925,91.3402731 35.5009766,99.239258 C29.4841576,107.520699 14.1940888,136.509182 14.1940888,136.509182 C13.1613877,138.45113 13.7996013,141.0426 15.655994,142.227426 C15.655994,142.227426 27.8446689,151.427323 36.6132823,147.59619 C40.4272872,145.929797 40.1658446,140.500267 42.3891597,136.550294 C43.2971258,134.937189 44.1558733,133.489321 45.0182743,132.108534 L45.0182743,132.108534 C45.0061217,132.515193 45,132.92345 45,133.333208 C45,138.523122 45.6140157,143.500526 46.9282027,148.050761 C46.7727445,148.356188 46.6579072,148.706639 46.5917117,149.098814 C46.5917117,149.098814 42.7627577,171.222969 41.8095703,182.762658 C40.7652226,195.405973 40.7543983,220.066147 40.7543983,220.066147 C40.7432551,222.277964 42.5323546,224.070941 44.7457496,224.070941 L73.5248977,224.070941 C75.7330178,224.070941 77.6369436,222.284441 77.7656532,220.080681 C77.7656532,220.080681 79.2746719,195.361691 79.94161,171.673135 Z" id="Oval-2" fill="#FFCD55" sketch:type="MSShapeGroup"></path>
            <path d="M59.2271484,150 C59.2271484,150 76.2369141,168.658203 101.229102,151.835938 C72.3931641,160.007812 59.2271484,150 59.2271484,150 Z" id="Path-8" fill-opacity="0.2" fill="#000000" sketch:type="MSShapeGroup"></path>
            <path d="M61.2271484,160.269989 C61.2271484,160.269989 70.4814457,171.579559 88.6001953,171.579559 C74.9136719,167.675299 61.2271484,160.269989 61.2271484,160.269989 Z" id="Path-9" fill-opacity="0.2" fill="#000000" sketch:type="MSShapeGroup"></path>
            <path d="M108.206055,98.7255859 C108.206055,98.7255859 117.808594,110.483398 118.645508,128.924805 C113.425781,107.964355 108.206055,98.7255859 108.206055,98.7255859 Z" id="Path-10" fill-opacity="0.2" fill="#000000" sketch:type="MSShapeGroup"></path>
            <path d="M45.1152344,131.762695 C45.1152344,131.762695 43.3398438,114.213867 50.8027344,102.527344 C46.7436524,118.396974 45.1152344,131.762695 45.1152344,131.762695 Z" id="Path-12" fill-opacity="0.2" fill="#000000" sketch:type="MSShapeGroup"></path>
            <path d="M114.927232,61.0290097 C120.890336,69.9772489 129.989998,84.0290237 129.989998,86.4511719 C129.989998,90.0537109 119.985116,80.7822266 111.203866,89.3779297 C102.422616,97.9736328 65.0876546,118.483398 48.7487874,87.1455078 C48.0097559,84.6076491 49.0907093,82.6926898 50.1645556,81.5106334 C45.7868409,72.0196732 46.0017171,59.3101415 46.0017171,46.6435547 C46.0017171,21.5145986 55.3942952,2 81.0017171,2 C114.521248,2 116.001717,21.5145986 116.001717,46.6435547 C116.001717,51.4933932 115.661827,56.3495789 114.927232,61.0290097 Z" id="Mask-Copy" fill-opacity="0.3" fill="#000000" sketch:type="MSShapeGroup"></path>
            <path d="M117.851562,131.765625 C116.797526,131.508706 113.960937,142.59375 113.960937,142.59375 C113.960937,142.59375 111.139852,230.776311 115.628906,257.788086 C125.637207,256.505859 130.944825,252.39917 132.510255,251.553711 C133.397462,234.166748 122.637695,233.979248 120.875977,231.694824 C120.875977,227.554199 121.884248,209.07959 121.549561,209.07959 L120.875977,209.07959 L119.636475,182.577881 C119.636475,182.577881 116.794922,149.234131 117.045898,143.345703 C117.489746,141.35669 118.446289,132.637207 117.851562,131.765625 Z" id="Path-18" fill-opacity="0.2" fill="#000000" sketch:type="MSShapeGroup"></path>
            <g id="Casco" transform="translate(45.000000, 0.000000)">
                <mask id="mask-2" sketch:name="Mask" fill="white">
                    <use xlink:href="#path-1"></use>
                </mask>
                <use id="Mask" fill="#FFCD55" sketch:type="MSShapeGroup" xlink:href="#path-1"></use>
                <path d="M-0.0744518097,28.1023506 C-0.0744518097,28.1023506 15.9550767,23.1657963 33.2935009,23.7028234 C35.3324023,23.7659748 37.3894037,23.9048172 39.4405671,24.1362792 C42.5487519,24.4870199 45.6435316,25.0504352 48.6416136,25.8854279 C53.922336,43.9030253 53.3464895,65.7547577 53.3464911,73.0235112 C41.1195616,82.8793802 8.90957523,81.7496677 2.55290492,76.0556289 C-2.44171939,67.2385169 -0.0744518097,28.1023506 -0.0744518097,28.1023506 Z" id="Path-Copy-2" fill-opacity="0.729449728" fill="#91BEAE" sketch:type="MSShapeGroup" mask="url(#mask-2)"></path>
                <path d="M-0.571185433,53.8389568 C-0.350450437,64.6457154 0.495792034,75.309661 2.77636719,79.6318359 C9.57861348,86.1733384 44.046385,87.4711899 57.1303711,76.1484375 C57.1303694,67.7978501 57.7465803,42.6938481 52.0957014,21.9946289 C28.7661116,15.0190429 -0.03515625,24.5415039 -0.03515625,24.5415039 C-0.03515625,24.5415039 -0.646573482,35.393335 -0.634884121,47.6354215 C-0.637026086,49.6722089 -0.618516601,51.7594943 -0.571185539,53.8389522 Z M-0.571185433,53.8389568 C-0.613614466,51.7617135 -0.632932624,49.6791935 -0.634884121,47.6354215 C-0.623945754,37.2341681 -0.0744518097,28.1498185 -0.0744518097,28.1498185 C-0.0744518097,28.1498185 26.8402108,19.8610098 48.6416136,25.9328958 C53.922336,43.9504931 53.3464895,65.8022256 53.3464911,73.070979 C41.1195616,82.9268481 8.90957523,81.7971356 2.55290492,76.1030968 C0.4358573,72.3658295 -0.358540015,63.1813882 -0.571185539,53.8389522 Z" id="Path-1" fill="#424242" sketch:type="MSShapeGroup" mask="url(#mask-2)"></path>
                <path d="M31.3813477,23.6464844 L15.8066406,44.1474609 L25.9492188,52.3730469 L4.13378906,76.8378906 L10.2753906,78.8291016 L33.9169922,51.237793 L23.175293,43.015625 C23.175293,43.015625 37.0910505,26.9355185 38.2875977,24.3535156" id="Path-19" fill-opacity="0.5" fill="#D8D8D8" sketch:type="MSShapeGroup" mask="url(#mask-2)"></path>
            </g>
            <g id="Zapatos" transform="translate(28.000000, 204.000000)" sketch:type="MSShapeGroup">
                <path d="M59.3000488,47.4445801 L66.7644043,44.9573364 L66.5177793,36.4299927 L59.3000488,39.8601074 L59.3000488,47.4445801 Z" id="Path-17" fill="#B1A49A"></path>
                <path d="M52.4356806,42.7840712 L53.0660517,0.575575103 C53.0660517,0.575575103 75.5631235,14.1195204 93.5435922,4.85584854 C93.5435922,18.3250868 92.9521348,27.8973524 92.9521348,27.8973524 C92.9521348,27.8973524 107.320299,32.3143446 104.503893,47.4803603 C76.6502073,66.2967665 59.4560411,40.457411 59.4560411,40.457411 L59.4560411,47.4803603 L52.4356806,42.7840712 Z" id="Path-6" fill="#424242"></path>
                <path d="M45.4633789,47.4663086 L38.6083984,44.6591797 L38.8217773,36.8730469 L45.4633789,40.6108398 L45.4633789,47.4663086 Z" id="Path-16" fill="#B1A49A"></path>
                <path d="M0.00159845288,42.7840712 L0.631969547,0.575575103 C0.631969547,0.575575103 22.5375825,11.9941406 40.5180512,2.73046874 C40.5180512,16.199707 40.5180527,27.8973524 40.5180527,27.8973524 C40.5180527,27.8973524 54.8862167,32.3143446 52.0698105,47.4803603 C24.2161251,66.2967665 7.02195892,40.457411 7.02195892,40.457411 L7.02195892,47.4803603 L0.00159845288,42.7840712 Z" id="Path-6-Copy" fill="#424242" transform="translate(26.218640, 27.459650) scale(-1, 1) translate(-26.218640, -27.459650) "></path>
                <path d="M18.2853499,25.9189243 C18.2853499,25.9189243 26.6440183,32.566091 23.9479476,40.2602329 C24.6530257,40.2602329 28.811411,33.0895786 18.2853499,25.9189243 Z" id="Path-15" fill-opacity="0.2" fill="#D8D8D8" transform="translate(21.816653, 33.089579) rotate(-46.000000) translate(-21.816653, -33.089579) "></path>
                <path d="M75.1214187,24.42469 C75.1214187,24.42469 83.480087,31.0718567 80.7840163,38.7659986 C81.4890945,38.7659986 85.6474797,31.5953443 75.1214187,24.42469 Z" id="Path-15-Copy" fill-opacity="0.2" fill="#D8D8D8" transform="translate(78.652722, 31.595344) rotate(-101.000000) translate(-78.652722, -31.595344) "></path>
            </g>
            <path d="M101.556641,13.0419925 C95.2529297,4.74218783 81.3544922,0.876953125 81.3544922,0.876953125 C81.3544922,0.876953125 105.266602,-1.26025391 112.732423,16.9521484 C116.901857,32.4355469 116.442384,39.6733398 114.964845,59.8461914 C120.341798,68.3085938 119.962402,67.6596702 129.790527,83.7954124 C139.564453,104.324221 141.999512,105.7251 149.187012,138.678225 L149.187012,141.153323 C149.187012,141.153323 146.862305,143.590334 141.959473,144.206057 C138.740234,122.704104 125.671657,85.0205572 120.714356,84.4643577 C118.217774,74.9135765 109.781251,69.3876953 107.860352,61.2578125 C107.06006,53.4267562 107.860352,21.3417972 101.556641,13.0419925 Z" id="Path-14" fill-opacity="0.2" fill="#000000" sketch:type="MSShapeGroup"></path>
        </g>
    </g>
</svg>