<?xml version="1.0" encoding="UTF-8" standalone="no"?>
<svg width="131px" height="259px" viewBox="0 0 131 259" version="1.1" xmlns="http://www.w3.org/2000/svg" xmlns:xlink="http://www.w3.org/1999/xlink" xmlns:sketch="http://www.bohemiancoding.com/sketch/ns">
    <!-- Generator: Sketch 3.3.3 (12081) - http://www.bohemiancoding.com/sketch -->
    <title>Liquidator Orange</title>
    <desc>Created with Sketch.</desc>
    <defs>
        <path d="M69.9255149,59.885455 C75.8886193,68.8336942 84.9882812,82.885469 84.9882812,85.3076172 C84.9882812,88.9101562 74.9833984,79.6386719 66.2021484,88.234375 C57.4208984,96.8300781 20.0859375,117.339844 3.74707031,86.0019531 C3.0080388,83.4640944 4.08899226,81.5491351 5.16283853,80.3670787 C0.785123831,70.8761186 1,58.1665869 1,45.5 C1,20.3710439 10.3925781,0.856445312 36,0.856445312 C69.5195312,0.856445312 71,20.3710439 71,45.5 C71,50.3498386 70.6601099,55.2060242 69.9255149,59.885455 Z" id="path-1"></path>
        <linearGradient x1="50%" y1="132.235775%" x2="50%" y2="30.3139741%" id="linearGradient-3">
            <stop stop-color="#87B33A" offset="0%"></stop>
            <stop stop-color="#B4ED50" offset="100%"></stop>
        </linearGradient>
    </defs>
    <g id="Page-1" stroke="none" stroke-width="1" fill="none" fill-rule="evenodd" sketch:type="MSPage">
        <g id="Liquidator-Orange" sketch:type="MSLayerGroup">
            <g id="Guantes" transform="translate(97.000000, 135.000000)" sketch:type="MSShapeGroup">
                <path d="M9.65989802,11.9319314 C10.6392371,9.8377717 26.2281101,11.9319313 26.2281101,11.9319313 L31.8632101,33.3254336 L2.86321013,33.3254336 C2.86321013,33.3254336 5.57016466,25.0543563 9.65989802,11.9319314 Z" id="Triangle-1" fill="#104A57" transform="translate(17.363210, 22.163314) rotate(-181.000000) translate(-17.363210, -22.163314) "></path>
                <path d="M17,15 C26.3888407,15 34,11.6421356 34,7.5 C34,3.35786438 26.3888407,0 17,0 C7.61115925,0 0,3.35786438 0,7.5 C0,11.6421356 7.61115925,15 17,15 Z" id="Oval-3" fill="#104A57"></path>
                <path d="M10.7912598,26.9628906 C10.7912598,26.9628906 4.5480957,29.8535156 4.5480957,34.1328125 C4.5480957,38.4121094 5.36126378,43.5230277 6.23754883,45.2480469 C7.11383387,46.973066 10.2509766,47.8461914 11.4389648,45.2480469 C12.0253906,41.8764648 10.7912598,37.4655209 10.7912598,37.4655209 C10.7912598,37.4655209 11.0476074,37.2944336 11.8029785,43.4484863 C11.8029785,45.6418457 16.5948706,47.2509766 17.2097168,44.0053711 C17.824563,40.7597656 17.1003418,39.7177734 17.5256348,39.7177734 C17.9509277,39.7177734 17.3972534,43.2375952 17.9509277,44.5126953 C18.2574134,45.2185251 19.3122506,46.1714736 20.4478291,46.2583727 C21.3637031,46.3284591 22.2617453,46.063562 22.6782227,45.2480469 C22.6782227,45.2480469 23.3400879,43.4484863 23.3400879,41.1337891 C23.0805664,38.9865141 23.6384277,39.0263672 23.6384277,41.1337891 C23.6384277,43.2412109 23.861908,42.9830363 24.520752,43.4484863 C26.1975098,44.6330566 28.0498047,43.4484863 28.0498047,43.4484863 C28.0498047,43.4484863 29.6144149,41.5839748 29.1733398,35.3144531 C28.834731,30.5014051 27.0613808,27.9072266 26.0842285,27.9072266 C23.8342285,27.9072266 10.7912598,26.9628906 10.7912598,26.9628906 Z" id="Path-13" fill="#104A57"></path>
                <path d="M6.6928293,7.68375853 C6.6928293,7.68375853 8.52730009,13.5951202 18.304708,18.3837097 C4.89137785,12.2674988 6.6928293,7.68375853 6.6928293,7.68375853 Z" id="Path-23" fill="#D8D8D8" transform="translate(12.458388, 13.033734) rotate(-39.000000) translate(-12.458388, -13.033734) "></path>
            </g>
            <path d="M9.74403005,132.721189 C6.6364251,131.004093 4.44226682,129.362271 4.44226682,129.362271 C2.58825479,128.14214 0.928465653,125.351971 0.688946999,123.172151 C0.688946999,123.172151 -3.09828838,116.362355 14.4804675,96.3037111 C22.4760869,87.1801256 26.3742344,84.9153121 26.3742344,84.9153121 C28.1227776,83.5773579 30.9162487,83.7469228 32.5506814,85.2360982 L45.6266418,97.1499556 C50.3577103,95.8186431 55.4617292,95.2823654 60.6304579,95.2823654 C64.5262027,95.2823654 68.2790426,95.9247812 71.7981253,97.1142216 C72.0396445,96.7379082 72.4384124,96.3852198 72.994422,96.0863705 L102.023449,80.4835725 C103.970322,79.437149 106.396783,80.172978 107.429725,82.1209521 C107.429725,82.1209521 116.876533,99.562706 120.206768,108.712452 C123.698248,118.305213 127.899596,138.411932 127.899596,138.411932 C128.364998,140.566456 127.037776,142.844798 124.889607,143.396831 C124.889607,143.396831 122.366292,144.63371 113.597425,144.80932 C104.828557,144.984931 104.059916,143.985745 104.059916,143.985745 C101.945467,143.351988 99.8661139,141.079198 99.3987762,138.925577 C99.3987762,138.925577 98.3562129,133.570265 96.5012574,126.923284 L96.5012574,126.923284 C96.855261,129.063287 97.0397864,131.264339 97.0397864,133.510644 C97.0397864,137.105334 96.7443372,140.57049 96.1246462,143.848338 C96.1515901,143.84766 96.1785388,143.846993 96.2054931,143.846332 C96.2054931,155.804274 98.1152097,172.45676 98.9266889,186.895816 C99.8917862,204.068276 99.9593845,217.245309 99.9593845,217.245309 C99.9860475,219.448113 98.2133831,221.233838 96.0152665,221.233838 L64.6228535,221.233838 C62.4179143,221.233838 60.6304579,219.438358 60.6304579,217.236695 L60.6304579,182.540085 L60.6304579,171.738922 L60.6304579,171.738922 C60.1068928,171.748328 59.5885911,171.755203 59.0755511,171.759396 L59.0755511,171.759396 C58.4100729,195.378916 56.9053878,220.020662 56.9053878,220.020662 C56.7769979,222.21839 54.8778018,224 52.675167,224 L23.9675106,224 C21.7596141,224 19.9749589,222.211931 19.9861693,219.990347 C19.9861693,219.990347 19.9968718,195.413497 21.0386253,182.80479 C21.650269,175.401851 23.4479536,163.637091 24.6526603,156.185671 C22.7629117,151.595556 21.6959619,145.744069 21.4490033,138.327152 L13.9655649,134.77435 C12.7429893,134.26673 11.5637925,133.694826 10.4763711,133.117837 L10.2886784,133.028729 C10.1009595,132.939608 9.91912849,132.836563 9.74403005,132.721189 Z" id="Oval-2" fill="#FA6A31" sketch:type="MSShapeGroup"></path>
            <path d="M33.9990234,153.56775 C33.9990234,153.56775 51.0087891,172.225953 76.0009766,155.403687 C52.65625,166.953125 33.9990234,153.56775 33.9990234,153.56775 Z" id="Path-8" fill-opacity="0.2" fill="#000000" sketch:type="MSShapeGroup"></path>
            <path d="M41.4995117,149.02404 C41.4995117,149.02404 52.4342481,161.018475 68.5004883,150.204273 C53.4933191,157.628835 41.4995117,149.02404 41.4995117,149.02404 Z" id="Path-8-Copy" fill-opacity="0.2" fill="#000000" sketch:type="MSShapeGroup"></path>
            <path d="M40.2271484,160.269989 C40.2271484,160.269989 49.4814457,171.579559 67.6001953,171.579559 C53.9136719,167.675299 40.2271484,160.269989 40.2271484,160.269989 Z" id="Path-9" fill-opacity="0.2" fill="#000000" sketch:type="MSShapeGroup"></path>
            <path d="M87.2060547,98.7255859 C87.2060547,98.7255859 96.8085938,110.483398 97.6455078,128.924805 C92.4257812,107.964355 87.2060547,98.7255859 87.2060547,98.7255859 Z" id="Path-10" fill-opacity="0.2" fill="#000000" sketch:type="MSShapeGroup"></path>
            <path d="M45.0458981,118.753906 C45.0458982,118.753906 30.2543946,117.800293 33.3422851,108.101074 C25.8056643,116.416015 41.4672851,118.753906 45.0458981,118.753906 Z" id="Path-12" fill-opacity="0.2" fill="#000000" sketch:type="MSShapeGroup"></path>
            <path d="M21.5322266,138.291016 C21.5322266,138.291016 24.2963867,140.851074 28.6621094,142.883301 C37.7685547,147.226074 35.7919922,144.915527 35.7919922,144.915527 L21.5322266,138.291016 Z" id="Path-46" fill-opacity="0.2" fill="#000000" sketch:type="MSShapeGroup"></path>
            <path d="M93.927232,61.0290097 C99.8903364,69.9772489 108.989998,84.0290237 108.989998,86.4511719 C108.989998,90.0537109 98.9851155,80.7822266 90.2038655,89.3779297 C81.4226155,97.9736328 44.0876546,118.483398 27.7487874,87.1455078 C27.0097559,84.6076491 28.0907093,82.6926898 29.1645556,81.5106334 C24.7868409,72.0196732 25.0017171,59.3101415 25.0017171,46.6435547 C25.0017171,21.5145986 34.3942952,2 60.0017171,2 C93.5212483,2 95.0017171,21.5145986 95.0017171,46.6435547 C95.0017171,51.4933932 94.661827,56.3495789 93.927232,61.0290097 Z" id="Mask-Copy" fill-opacity="0.2" fill="#000000" sketch:type="MSShapeGroup"></path>
            <path d="M96.8515625,131.765625 C95.7975265,131.508706 92.9609375,142.59375 92.9609375,142.59375 C92.9609375,142.59375 90.1398516,230.776311 94.6289062,257.788086 C104.637207,256.505859 109.944825,252.39917 111.510255,251.553711 C112.397462,234.166748 101.637695,233.979248 99.8759766,231.694824 C99.8759766,227.554199 100.884248,209.07959 100.549561,209.07959 L99.8759766,209.07959 L98.6364746,182.577881 C98.6364746,182.577881 95.7949218,149.234131 96.0458984,143.345703 C96.4897461,141.35669 97.446289,132.637207 96.8515625,131.765625 Z" id="Path-18" fill-opacity="0.223901721" fill="#000000" sketch:type="MSShapeGroup"></path>
            <g id="Casco" transform="translate(24.000000, 0.000000)">
                <mask id="mask-2" sketch:name="Mask" fill="white">
                    <use xlink:href="#path-1"></use>
                </mask>
                <use id="Mask" fill="#FA6A31" sketch:type="MSShapeGroup" xlink:href="#path-1"></use>
                <path d="M-0.0744518097,28.1023506 C-0.0744518097,28.1023506 15.9550767,23.1657963 33.2935009,23.7028234 C35.3324023,23.7659748 37.3894037,23.9048172 39.4405671,24.1362792 C42.5487519,24.4870199 45.6435316,25.0504352 48.6416136,25.8854279 C53.922336,43.9030253 53.3464895,65.7547577 53.3464911,73.0235112 C41.1195616,82.8793802 8.90957523,81.7496677 2.55290492,76.0556289 C-2.44171939,67.2385169 -0.0744518097,28.1023506 -0.0744518097,28.1023506 Z" id="Path-Copy-2" fill-opacity="0.729449728" fill="#91BEAE" sketch:type="MSShapeGroup" mask="url(#mask-2)"></path>
                <path d="M-0.571185433,53.8389568 C-0.350450437,64.6457154 0.495792034,75.309661 2.77636719,79.6318359 C9.57861348,86.1733384 44.046385,87.4711899 57.1303711,76.1484375 C57.1303694,67.7978501 57.7465803,42.6938481 52.0957014,21.9946289 C28.7661116,15.0190429 -0.03515625,24.5415039 -0.03515625,24.5415039 C-0.03515625,24.5415039 -0.646573482,35.393335 -0.634884121,47.6354215 C-0.637026086,49.6722089 -0.618516601,51.7594943 -0.571185539,53.8389522 Z M-0.571185433,53.8389568 C-0.613614466,51.7617135 -0.632932624,49.6791935 -0.634884121,47.6354215 C-0.623945754,37.2341681 -0.0744518097,28.1498185 -0.0744518097,28.1498185 C-0.0744518097,28.1498185 26.8402108,19.8610098 48.6416136,25.9328958 C53.922336,43.9504931 53.3464895,65.8022256 53.3464911,73.070979 C41.1195616,82.9268481 8.90957523,81.7971356 2.55290492,76.1030968 C0.4358573,72.3658295 -0.358540015,63.1813882 -0.571185539,53.8389522 Z" id="Path-1" fill="#424242" sketch:type="MSShapeGroup" mask="url(#mask-2)"></path>
                <path d="M31.3813477,23.6464844 L15.8066406,44.1474609 L25.9492188,52.3730469 L4.13378906,76.8378906 L10.2753906,78.8291016 L33.9169922,51.237793 L23.175293,43.015625 C23.175293,43.015625 37.0910505,26.9355185 38.2875977,24.3535156" id="Path-19" fill-opacity="0.5" fill="#D8D8D8" sketch:type="MSShapeGroup" mask="url(#mask-2)"></path>
            </g>
            <path d="M80.5566406,13.0419925 C74.2529297,4.74218783 60.3544922,0.876953125 60.3544922,0.876953125 C60.3544922,0.876953125 84.2666025,-1.26025391 91.7324228,16.9521484 C95.9018573,32.4355469 95.4423837,39.6733398 93.9648447,59.8461914 C99.3417978,68.3085938 98.9624023,67.6596702 108.790527,83.7954124 C118.564453,104.324221 120.999512,105.7251 128.187012,138.678225 L128.187012,141.153323 C128.187012,141.153323 125.862305,143.590334 120.959473,144.206057 C117.740234,122.704104 104.671657,85.0205572 99.7143564,84.4643577 C97.2177744,74.9135765 88.7812509,69.3876953 86.8603516,61.2578125 C86.0600595,53.4267562 86.8603516,21.3417972 80.5566406,13.0419925 Z" id="Path-14" fill-opacity="0.2" fill="#000000" sketch:type="MSShapeGroup"></path>
            <g id="Zapatos" transform="translate(7.000000, 204.000000)" sketch:type="MSShapeGroup">
                <path d="M59.3000488,47.4445801 L66.7644043,44.9573364 L66.5177793,36.4299927 L59.3000488,39.8601074 L59.3000488,47.4445801 Z" id="Path-17" fill="#B1A49A"></path>
                <path d="M52.4356806,42.7840712 L53.0660517,0.575575103 C53.0660517,0.575575103 75.5631235,14.1195204 93.5435922,4.85584854 C93.5435922,18.3250868 92.9521348,27.8973524 92.9521348,27.8973524 C92.9521348,27.8973524 107.320299,32.3143446 104.503893,47.4803603 C76.6502073,66.2967665 59.4560411,40.457411 59.4560411,40.457411 L59.4560411,47.4803603 L52.4356806,42.7840712 Z" id="Path-6" fill="#424242"></path>
                <path d="M45.4633789,47.4663086 L38.6083984,44.6591797 L38.8217773,36.8730469 L45.4633789,40.6108398 L45.4633789,47.4663086 Z" id="Path-16" fill="#B1A49A"></path>
                <path d="M0.00159845288,42.7840712 L0.631969547,0.575575103 C0.631969547,0.575575103 22.5375825,11.9941406 40.5180512,2.73046874 C40.5180512,16.199707 40.5180527,27.8973524 40.5180527,27.8973524 C40.5180527,27.8973524 54.8862167,32.3143446 52.0698105,47.4803603 C24.2161251,66.2967665 7.02195892,40.457411 7.02195892,40.457411 L7.02195892,47.4803603 L0.00159845288,42.7840712 Z" id="Path-6-Copy" fill="#424242" transform="translate(26.218640, 27.459650) scale(-1, 1) translate(-26.218640, -27.459650) "></path>
                <path d="M18.2853499,25.9189243 C18.2853499,25.9189243 26.6440183,32.566091 23.9479476,40.2602329 C24.6530257,40.2602329 28.811411,33.0895786 18.2853499,25.9189243 Z" id="Path-15" fill-opacity="0.2" fill="#D8D8D8" transform="translate(21.816653, 33.089579) rotate(-46.000000) translate(-21.816653, -33.089579) "></path>
                <path d="M75.1214187,24.42469 C75.1214187,24.42469 79.4541747,27.8702809 80.8746185,32.6714757 C81.4270993,34.5388976 81.5390007,36.6113974 80.7840163,38.7659986 C81.4890945,38.7659986 85.6474797,31.5953443 75.1214187,24.42469 Z" id="Path-15-Copy" fill-opacity="0.2" fill="#D8D8D8" transform="translate(78.652722, 31.595344) rotate(-101.000000) translate(-78.652722, -31.595344) "></path>
            </g>
            <g id="Left-Globe" transform="translate(61.725041, 127.323257) rotate(-75.000000) translate(-61.725041, -127.323257) translate(34.225041, 102.323257)" sketch:type="MSShapeGroup">
                <rect id="Rectangle-10" fill="url(#linearGradient-3)" transform="translate(28.144767, 40.883629) rotate(91.000000) translate(-28.144767, -40.883629) " x="24.1447667" y="14.3836289" width="8" height="53" rx="4"></rect>
                <path d="M18.12048,16.2158921 C27.5093208,16.2158921 35.12048,12.8580277 35.12048,8.71589208 C35.12048,4.57375646 27.5093208,1.21589208 18.12048,1.21589208 C8.73163928,1.21589208 1.12048002,4.57375646 1.12048002,8.71589208 C1.12048002,12.8580277 8.73163928,16.2158921 18.12048,16.2158921 Z" id="Oval-3-Copy" fill="#104A57" transform="translate(18.120480, 8.715892) rotate(4.000000) translate(-18.120480, -8.715892) "></path>
                <path d="M10.4171679,10.6309083 C11.396507,8.53674854 26.9853799,10.6309082 26.9853799,10.6309082 L32.62048,32.0244104 L3.62048002,32.0244104 C3.62048002,32.0244104 6.32743455,23.7533332 10.4171679,10.6309083 Z" id="Triangle-1-Copy" fill="#104A57" transform="translate(18.120480, 20.862291) rotate(-176.000000) translate(-18.120480, -20.862291) "></path>
                <path d="M10.358395,3.23427105 C10.358395,3.23427105 16.1051571,14.0800114 25.882565,18.8686008 C12.4692349,12.7523899 10.358395,3.23427105 10.358395,3.23427105 Z" id="Path-23-Copy" fill="#D8D8D8" transform="translate(18.120480, 11.051436) rotate(-222.000000) translate(-18.120480, -11.051436) "></path>
                <path d="M9.94258625,28.392325 C9.94258625,28.392325 3.69942219,31.28295 3.69942219,35.5622469 C3.69942219,39.8415438 4.51259027,44.9524621 5.38887532,46.6774813 C6.26516036,48.4025004 9.40230305,49.2756258 10.5902913,46.6774813 C11.1767171,43.3058992 9.94258625,38.8949552 9.94258625,38.8949552 C9.94258625,38.8949552 10.2683199,40.5234285 11.023691,46.6774813 C11.023691,48.3533865 16.0540784,48.3912741 16.3960384,46.2984987 C16.7379983,44.2057234 16.2516683,41.1472078 16.6769613,41.1472078 C17.1022542,41.1472078 16.5485798,44.6670296 17.1022542,45.9421297 C17.3400256,46.4897122 17.903925,46.803946 18.675058,46.9578995 C18.8979097,47.0023909 19.138069,47.0334963 19.3926662,47.0529791 C20.3085402,47.1230655 21.6575996,46.7576448 22.074077,45.9421297 C22.074077,45.9421297 22.4914144,44.8779207 22.4914144,42.5632234 C22.2318929,40.4159485 22.7897542,40.4558016 22.7897542,42.5632234 C22.7897542,44.6706453 22.1309103,44.4124707 22.7897542,44.8779207 C24.466512,46.062491 27.2011312,44.8779207 27.2011312,44.8779207 C27.2011312,44.8779207 28.1657506,43.6964631 27.7246755,37.4269415 C27.3860666,32.6138934 24.6492307,28.392325 23.6720784,28.392325 L9.94258625,28.392325 Z" id="Path-13-Copy" fill="#104A57" transform="translate(15.769788, 38.353601) rotate(5.000000) translate(-15.769788, -38.353601) "></path>
            </g>
        </g>
    </g>
</svg>