<?xml version="1.0" encoding="UTF-8" standalone="no"?>
<svg width="135px" height="258px" viewBox="0 0 135 258" version="1.1" xmlns="http://www.w3.org/2000/svg" xmlns:xlink="http://www.w3.org/1999/xlink" xmlns:sketch="http://www.bohemiancoding.com/sketch/ns">
    <!-- Generator: Sketch 3.3.3 (12081) - http://www.bohemiancoding.com/sketch -->
    <title>Bit orange</title>
    <desc>Created with Sketch.</desc>
    <defs></defs>
    <g id="Page-1" stroke="none" stroke-width="1" fill="none" fill-rule="evenodd" sketch:type="MSPage">
        <g id="Bit-orange" sketch:type="MSLayerGroup">
            <rect id="Rectangle-15" fill="#FA6A31" sketch:type="MSShapeGroup" x="35" y="0" width="62" height="75"></rect>
            <rect id="Rectangle-16" fill="#424242" sketch:type="MSShapeGroup" x="35" y="17" width="48" height="58"></rect>
            <rect id="Rectangle-17" fill="#ADA78C" sketch:type="MSShapeGroup" x="35" y="21" width="44" height="49"></rect>
            <rect id="Rectangle-18" fill="#FA6A31" sketch:type="MSShapeGroup" x="29" y="75" width="75" height="87"></rect>
            <rect id="Rectangle-18-Copy" fill="#FA6A31" sketch:type="MSShapeGroup" x="108" y="75" width="25" height="75"></rect>
            <rect id="Rectangle-18-Copy-4" fill="#FA6A31" sketch:type="MSShapeGroup" x="0" y="75" width="25" height="75"></rect>
            <rect id="Rectangle-18-Copy-5" fill="#FA6A31" sketch:type="MSShapeGroup" transform="translate(24.500000, 158.500000) rotate(-90.000000) translate(-24.500000, -158.500000) " x="12" y="134" width="25" height="49"></rect>
            <rect id="Rectangle-18-Copy-3" fill="#FA6A31" sketch:type="MSShapeGroup" transform="translate(64.500000, 86.500000) rotate(90.000000) translate(-64.500000, -86.500000) " x="53" y="43" width="23" height="87"></rect>
            <rect id="Rectangle-19" fill="#FA6A31" sketch:type="MSShapeGroup" x="36" y="155" width="29" height="87"></rect>
            <rect id="Rectangle-19-Copy" fill="#FA6A31" sketch:type="MSShapeGroup" x="68" y="155" width="31" height="87"></rect>
            <rect id="Rectangle-21" fill="#424242" sketch:type="MSShapeGroup" x="32" y="209" width="33" height="49"></rect>
            <rect id="Rectangle-21-Copy-2" fill="#424242" sketch:type="MSShapeGroup" x="20" y="237" width="33" height="21"></rect>
            <rect id="Rectangle-21-Copy-3" fill="#424242" sketch:type="MSShapeGroup" x="79" y="237" width="33" height="21"></rect>
            <rect id="Rectangle-21-Copy" fill="#424242" sketch:type="MSShapeGroup" x="68" y="209" width="33" height="49"></rect>
            <rect id="Rectangle-38" fill="#C0BAA1" sketch:type="MSShapeGroup" x="42" y="21" width="5" height="21"></rect>
            <rect id="Rectangle-38-Copy" fill="#C0BAA1" sketch:type="MSShapeGroup" x="57" y="41" width="5" height="29"></rect>
            <rect id="Rectangle-38-Copy-2" fill="#C0BAA1" sketch:type="MSShapeGroup" x="44" y="36" width="18" height="6"></rect>
            <rect id="Rectangle-107" fill="#AFE64E" sketch:type="MSShapeGroup" x="48" y="125" width="12" height="47"></rect>
            <g id="Globe-left" transform="translate(42.500000, 158.000000) rotate(-90.000000) translate(-42.500000, -158.000000) translate(28.500000, 137.000000)" fill="#104A57" sketch:type="MSShapeGroup">
                <rect id="Rectangle-30" x="0" y="29.1666667" width="4.86956522" height="12.8333333"></rect>
                <rect id="Rectangle-30-Copy" x="7.30434783" y="29.1666667" width="4.86956522" height="12.8333333"></rect>
                <rect id="Rectangle-30-Copy-2" x="14.6086957" y="29.1666667" width="4.86956522" height="12.8333333"></rect>
                <rect id="Rectangle-30-Copy-3" x="23.1304348" y="29.1666667" width="4.86956522" height="12.8333333"></rect>
                <rect id="Rectangle-28" x="0" y="0" width="28" height="33.8333333"></rect>
            </g>
            <g id="Globe-right" transform="translate(106.080017, 139.000000)" fill="#104A57" sketch:type="MSShapeGroup">
                <rect id="Rectangle-30" x="0" y="29.1666667" width="4.86956522" height="12.8333333"></rect>
                <rect id="Rectangle-30-Copy" x="7.30434783" y="29.1666667" width="4.86956522" height="12.8333333"></rect>
                <rect id="Rectangle-30-Copy-2" x="14.6086957" y="29.1666667" width="4.86956522" height="12.8333333"></rect>
                <rect id="Rectangle-30-Copy-3" x="23.1304348" y="29.1666667" width="4.86956522" height="12.8333333"></rect>
                <rect id="Rectangle-28" x="0" y="0" width="28" height="33.8333333"></rect>
            </g>
        </g>
    </g>
</svg>