<?xml version="1.0" encoding="UTF-8" standalone="no"?>
<svg width="75px" height="68px" viewBox="0 0 75 68" version="1.1" xmlns="http://www.w3.org/2000/svg" xmlns:xlink="http://www.w3.org/1999/xlink" xmlns:sketch="http://www.bohemiancoding.com/sketch/ns">
    <!-- Generator: Sketch 3.3.3 (12081) - http://www.bohemiancoding.com/sketch -->
    <title>Atomo Copy</title>
    <desc>Created with Sketch.</desc>
    <defs>
        <linearGradient x1="32.1735116%" y1="39.4122658%" x2="11.9559003%" y2="137.283536%" id="linearGradient-1">
            <stop stop-color="#FFFFFF" stop-opacity="0" offset="0%"></stop>
            <stop stop-color="#FFFFFF" offset="100%"></stop>
        </linearGradient>
        <linearGradient x1="32.1735116%" y1="39.4122658%" x2="11.9559003%" y2="137.283536%" id="linearGradient-2">
            <stop stop-color="#FFFFFF" stop-opacity="0" offset="0%"></stop>
            <stop stop-color="#000000" offset="100%"></stop>
        </linearGradient>
        <linearGradient x1="50%" y1="0%" x2="165.824381%" y2="78.8072385%" id="linearGradient-3">
            <stop stop-color="#FFFFFF" stop-opacity="0" offset="0%"></stop>
            <stop stop-color="#FFFFFF" offset="100%"></stop>
        </linearGradient>
    </defs>
    <g id="Page-2" stroke="none" stroke-width="1" fill="none" fill-rule="evenodd" sketch:type="MSPage">
        <g id="Desktop" sketch:type="MSArtboardGroup" transform="translate(-133.000000, -1995.000000)">
            <g id="Footer" sketch:type="MSLayerGroup" transform="translate(-24.000000, 1961.000000)">
                <g id="Atomo-Copy" transform="translate(158.000000, 35.094340)" sketch:type="MSShapeGroup">
                    <path d="M36.6810206,50.8819029 C56.9393889,50.8819029 73.3620413,43.2541014 73.3620413,33.8447314 C73.3620413,24.4353615 56.9393889,16.80756 36.6810206,16.80756 C16.4226523,16.80756 0,24.4353615 0,33.8447314 C0,43.2541014 16.4226523,50.8819029 36.6810206,50.8819029 Z" id="Oval-32-Copy-8" stroke="#FFFFFF"></path>
                    <path d="M50.6370545,43.6168515 C62.2567771,27.0221677 65.4280944,9.1943913 57.7203897,3.7973984 C50.0126851,-1.5995945 34.3447095,7.47792754 22.7249868,24.0726113 C11.1052641,40.6672952 7.93394688,58.4950716 15.6416515,63.8920645 C23.3493562,69.2890574 39.0173318,60.2115353 50.6370545,43.6168515 Z" id="Oval-32-Copy-6" stroke="#FFFFFF"></path>
                    <path d="M50.6370545,24.0726113 C39.0173318,7.47792754 23.3493562,-1.5995945 15.6416515,3.7973984 C7.93394688,9.1943913 11.1052641,27.0221677 22.7249868,43.6168515 C34.3447095,60.2115353 50.0126851,69.2890574 57.7203897,63.8920645 C65.4280944,58.4950716 62.2567771,40.6672952 50.6370545,24.0726113 Z" id="Oval-32-Copy-7" stroke="#FFFBFB"></path>
                    <g id="Centro-atomo-Copy-2" transform="translate(22.524227, 18.093384)">
                        <g id="Atom-blue-Copy" transform="translate(14.654317, 3.857473)">
                            <path d="M6.78440579,13.7766885 C10.5313296,13.7766885 13.5688116,10.6926717 13.5688116,6.88834425 C13.5688116,3.08401677 10.5313296,0 6.78440579,0 C3.03748193,0 0,3.08401677 0,6.88834425 C0,10.6926717 3.03748193,13.7766885 6.78440579,13.7766885 Z" id="Oval-11" stroke="#CCCCCC" fill="#DDDDDD"></path>
                            <path d="M1.35688132,2.673766 C2.51364836,0.475597679 4.72384321,-1.01029049 7.26026649,-1.01029049 C10.9941747,-1.01029049 14.0211053,2.20981374 14.0211053,6.1820136 C14.0211053,8.48289516 13.005491,10.531429 11.4251504,11.8479521 C11.971278,10.8101627 12.2826039,9.61361105 12.2826039,8.33970483 C12.2826039,4.36750497 9.25567325,1.14740074 5.52176508,1.14740074 C3.95070892,1.14740074 2.50481166,1.71746798 1.35688116,2.67376632 L1.35688132,2.673766 Z" id="Oval-11" opacity="0.49504431" fill="url(#linearGradient-1)"></path>
                        </g>
                        <g id="Atom-blue" transform="translate(0.000000, 4.775919)">
                            <ellipse id="Oval-11" stroke="#CCCCCC" fill="#DDDDDD" cx="6.78440579" cy="6.88834425" rx="6.78440579" ry="6.88834425"></ellipse>
                            <path d="M1.35688132,2.673766 C2.51364836,0.475597679 4.72384321,-1.01029049 7.26026649,-1.01029049 C10.9941747,-1.01029049 14.0211053,2.20981374 14.0211053,6.1820136 C14.0211053,8.48289516 13.005491,10.531429 11.4251504,11.8479521 C11.971278,10.8101627 12.2826039,9.61361105 12.2826039,8.33970483 C12.2826039,4.36750497 9.25567325,1.14740074 5.52176508,1.14740074 C3.95070892,1.14740074 2.50481166,1.71746798 1.35688116,2.67376632 L1.35688132,2.673766 Z" id="Oval-11" opacity="0.49504431" fill="url(#linearGradient-1)"></path>
                        </g>
                        <g id="Atom-red-Copy" transform="translate(0.000000, 13.776689)">
                            <ellipse id="Oval-11" fill="#CCCCCC" cx="6.78440579" cy="6.88834425" rx="6.78440579" ry="6.88834425"></ellipse>
                            <path d="M1.35688132,2.673766 C2.51364836,0.475597679 4.72384321,-1.01029049 7.26026649,-1.01029049 C10.9941747,-1.01029049 14.0211053,2.20981374 14.0211053,6.1820136 C14.0211053,8.48289516 13.005491,10.531429 11.4251504,11.8479521 C11.971278,10.8101627 12.2826039,9.61361105 12.2826039,8.33970483 C12.2826039,4.36750497 9.25567325,1.14740074 5.52176508,1.14740074 C3.95070892,1.14740074 2.50481166,1.71746798 1.35688116,2.67376632 L1.35688132,2.673766 Z" id="Oval-11" opacity="0.49504431" fill="url(#linearGradient-1)"></path>
                        </g>
                        <g id="Atom" transform="translate(6.784406, 0.000000)">
                            <ellipse id="Oval-11" fill="#CCCCCC" cx="6.78440579" cy="6.88834425" rx="6.78440579" ry="6.88834425"></ellipse>
                            <path d="M1.35688132,2.673766 C2.51364836,0.475597679 4.72384321,-1.01029049 7.26026649,-1.01029049 C10.9941747,-1.01029049 14.0211053,2.20981374 14.0211053,6.1820136 C14.0211053,8.48289516 13.005491,10.531429 11.4251504,11.8479521 C11.971278,10.8101627 12.2826039,9.61361105 12.2826039,8.33970483 C12.2826039,4.36750497 9.25567325,1.14740074 5.52176508,1.14740074 C3.95070892,1.14740074 2.50481166,1.71746798 1.35688116,2.67376632 L1.35688132,2.673766 Z" id="Oval-11" opacity="0.49504431" fill="url(#linearGradient-1)"></path>
                        </g>
                        <g id="Atom-blue-Copy-3" transform="translate(6.693947, 17.634161)">
                            <ellipse id="Oval-11" stroke="#CCCCCC" fill="#DDDDDD" cx="6.78440579" cy="6.88834425" rx="6.78440579" ry="6.88834425"></ellipse>
                            <path d="M1.35688132,2.673766 C2.51364836,0.475597679 4.72384321,-1.01029049 7.26026649,-1.01029049 C10.9941747,-1.01029049 14.0211053,2.20981374 14.0211053,6.1820136 C14.0211053,8.48289516 13.005491,10.531429 11.4251504,11.8479521 C11.971278,10.8101627 12.2826039,9.61361105 12.2826039,8.33970483 C12.2826039,4.36750497 9.25567325,1.14740074 5.52176508,1.14740074 C3.95070892,1.14740074 2.50481166,1.71746798 1.35688116,2.67376632 L1.35688132,2.673766 Z" id="Oval-11" opacity="0.49504431" fill="url(#linearGradient-2)"></path>
                        </g>
                        <g id="Atom-red" transform="translate(14.654317, 13.776689)">
                            <ellipse id="Oval-11" fill="#CCCCCC" cx="6.78440579" cy="6.88834425" rx="6.78440579" ry="6.88834425"></ellipse>
                            <path d="M1.35688132,2.673766 C2.51364836,0.475597679 4.72384321,-1.01029049 7.26026649,-1.01029049 C10.9941747,-1.01029049 14.0211053,2.20981374 14.0211053,6.1820136 C14.0211053,8.48289516 13.005491,10.531429 11.4251504,11.8479521 C11.971278,10.8101627 12.2826039,9.61361105 12.2826039,8.33970483 C12.2826039,4.36750497 9.25567325,1.14740074 5.52176508,1.14740074 C3.95070892,1.14740074 2.50481166,1.71746798 1.35688116,2.67376632 L1.35688132,2.673766 Z" id="Oval-11" opacity="0.49504431" fill="url(#linearGradient-1)"></path>
                        </g>
                        <g id="Atom-blue-Copy-4" transform="translate(6.693947, 6.888344)">
                            <ellipse id="Oval-11" stroke="#CCCCCC" fill="#DDDDDD" cx="6.78440579" cy="6.88834425" rx="6.78440579" ry="6.88834425"></ellipse>
                            <path d="M1.35688132,2.673766 C2.51364836,0.475597679 4.72384321,-1.01029049 7.26026649,-1.01029049 C10.9941747,-1.01029049 14.0211053,2.20981374 14.0211053,6.1820136 C14.0211053,8.48289516 13.005491,10.531429 11.4251504,11.8479521 C11.971278,10.8101627 12.2826039,9.61361105 12.2826039,8.33970483 C12.2826039,4.36750497 9.25567325,1.14740074 5.52176508,1.14740074 C3.95070892,1.14740074 2.50481166,1.71746798 1.35688116,2.67376632 L1.35688132,2.673766 Z" id="Oval-11" opacity="0.49504431" fill="url(#linearGradient-1)"></path>
                        </g>
                    </g>
                    <g id="Atom-blue-Copy-11" transform="translate(40.254141, 59.239761)">
                        <ellipse id="Oval-11" stroke="#F3F3F3" fill="#FFFFFF" cx="3.41481758" cy="3.46713327" rx="3.41481758" ry="3.46713327"></ellipse>
                        <path d="M3.53326906,0.055979756 C5.18331959,0.055979756 6.65044479,1.67302924 6.77254368,3.18299087 C6.86240496,4.29427931 6.54609713,5.30081926 5.75065904,5.96346923 C6.02554327,5.44111524 6.18224396,4.8388509 6.18224396,4.19765143 C6.18224396,2.19831083 4.65868887,0.577525038 2.77928843,0.577525038 C1.98852349,0.577525038 1.28770025,0.948449339 0.709908561,1.42978617 C1.4320002,0.577525026 2.25660268,0.055979756 3.53326906,0.055979756 Z" id="Oval-11" opacity="0.49504431" fill="url(#linearGradient-3)"></path>
                    </g>
                    <g id="Atom-blue-Copy-13" transform="translate(40.254141, 0.000000)">
                        <ellipse id="Oval-11" stroke="#E9EBEA" fill="#FFFFFF" cx="3.41481758" cy="3.46713327" rx="3.41481758" ry="3.46713327"></ellipse>
                        <path d="M3.53326906,0.055979756 C5.18331959,0.055979756 6.65044479,1.67302924 6.77254368,3.18299087 C6.86240496,4.29427931 6.54609713,5.30081926 5.75065904,5.96346923 C6.02554327,5.44111524 6.18224396,4.8388509 6.18224396,4.19765143 C6.18224396,2.19831083 4.65868887,0.577525038 2.77928843,0.577525038 C1.98852349,0.577525038 1.28770025,0.948449339 0.709908561,1.42978617 C1.4320002,0.577525026 2.25660268,0.055979756 3.53326906,0.055979756 Z" id="Oval-11" opacity="0.49504431" fill="url(#linearGradient-3)"></path>
                    </g>
                    <g id="Atom-blue-Copy-12" transform="translate(0.452294, 22.042702)">
                        <ellipse id="Oval-11" stroke="#DDDDDD" fill="#FFFFFF" cx="3.41481758" cy="3.46713327" rx="3.41481758" ry="3.46713327"></ellipse>
                        <path d="M3.53326906,0.055979756 C5.18331959,0.055979756 6.65044479,1.67302924 6.77254368,3.18299087 C6.86240496,4.29427931 6.54609713,5.30081926 5.75065904,5.96346923 C6.02554327,5.44111524 6.18224396,4.8388509 6.18224396,4.19765143 C6.18224396,2.19831083 4.65868887,0.577525038 2.77928843,0.577525038 C1.98852349,0.577525038 1.28770025,0.948449339 0.709908561,1.42978617 C1.4320002,0.577525026 2.25660268,0.055979756 3.53326906,0.055979756 Z" id="Oval-11" opacity="0.49504431" fill="url(#linearGradient-3)"></path>
                    </g>
                </g>
            </g>
        </g>
    </g>
</svg>