<?xml version="1.0" encoding="UTF-8" standalone="no"?>
<svg width="1354px" height="1696px" viewBox="0 0 1354 1696" version="1.1" xmlns="http://www.w3.org/2000/svg" xmlns:xlink="http://www.w3.org/1999/xlink" xmlns:sketch="http://www.bohemiancoding.com/sketch/ns">
    <!-- Generator: Sketch 3.3.3 (12081) - http://www.bohemiancoding.com/sketch -->
    <title>Shadow + Mailbox </title>
    <desc>Created with Sketch.</desc>
    <defs>
        <filter x="-50%" y="-50%" width="200%" height="200%" filterUnits="objectBoundingBox" id="filter-1">
            <feOffset dx="-1" dy="1" in="SourceAlpha" result="shadowOffsetOuter1"></feOffset>
            <feGaussianBlur stdDeviation="2" in="shadowOffsetOuter1" result="shadowBlurOuter1"></feGaussianBlur>
            <feColorMatrix values="0 0 0 0 0   0 0 0 0 0   0 0 0 0 0  0 0 0 0.35 0" in="shadowBlurOuter1" type="matrix" result="shadowMatrixOuter1"></feColorMatrix>
            <feMerge>
                <feMergeNode in="shadowMatrixOuter1"></feMergeNode>
                <feMergeNode in="SourceGraphic"></feMergeNode>
            </feMerge>
        </filter>
        <linearGradient x1="32.1735116%" y1="39.4122658%" x2="11.9559003%" y2="137.283536%" id="linearGradient-2">
            <stop stop-color="#FFFFFF" stop-opacity="0" offset="0%"></stop>
            <stop stop-color="#FFFFFF" offset="100%"></stop>
        </linearGradient>
        <linearGradient x1="32.1735116%" y1="39.4122658%" x2="11.9559003%" y2="137.283536%" id="linearGradient-3">
            <stop stop-color="#FFFFFF" stop-opacity="0" offset="0%"></stop>
            <stop stop-color="#000000" offset="100%"></stop>
        </linearGradient>
        <linearGradient x1="50%" y1="0%" x2="165.824381%" y2="78.8072385%" id="linearGradient-4">
            <stop stop-color="#FFFFFF" stop-opacity="0" offset="0%"></stop>
            <stop stop-color="#FFFFFF" offset="100%"></stop>
        </linearGradient>
        <filter x="-50%" y="-50%" width="200%" height="200%" filterUnits="objectBoundingBox" id="filter-5">
            <feOffset dx="-1" dy="1" in="SourceAlpha" result="shadowOffsetOuter1"></feOffset>
            <feGaussianBlur stdDeviation="2" in="shadowOffsetOuter1" result="shadowBlurOuter1"></feGaussianBlur>
            <feColorMatrix values="0 0 0 0 0   0 0 0 0 0   0 0 0 0 0  0 0 0 0.35 0" in="shadowBlurOuter1" type="matrix" result="shadowMatrixOuter1"></feColorMatrix>
            <feMerge>
                <feMergeNode in="shadowMatrixOuter1"></feMergeNode>
                <feMergeNode in="SourceGraphic"></feMergeNode>
            </feMerge>
        </filter>
    </defs>
    <g id="Page-1" stroke="none" stroke-width="1" fill="none" fill-rule="evenodd" sketch:type="MSPage">
        <g id="Shadow-+-Mailbox-" sketch:type="MSLayerGroup" transform="translate(4.000000, 0.000000)">
            <g id="Shadow" transform="translate(823.151920, 1245.000000) scale(1, -1) rotate(47.000000) translate(-823.151920, -1245.000000) translate(510.651920, 760.000000)" fill="#B1A49A" sketch:type="MSShapeGroup">
                <g id="Base" transform="translate(0.000000, 1.000000)">
                    <path d="M591.951098,363.553169 L441.125124,418.695575 L417.409135,932.644684 L374.106209,968.532416 L300.966649,923.250086 L304.818098,468.559556 L261.941143,484.250689 L254.489144,475.81073 C247.024257,478.33893 240.179749,480.611227 234.074302,482.581176 C234.046931,480.909899 104.681563,632.956817 104.681563,632.956817 C104.681563,632.956817 57.2549857,668.960267 19.467326,632.897507 C-18.3203336,596.82916 13.4554503,540.867422 13.4554503,540.867422 L124.879905,417.470131 L50.5168531,433.709567 L23.9077545,208.141079 L99.4333532,196.766611 L95.712656,152.810728 C95.712656,152.810728 77.8905147,20.7901855 140.722867,29.6137394 C190.758537,26.768226 233.16319,24.1766127 269.445514,21.8118367 L479.195473,5.18524999 C500.963111,3.12127201 518.841613,1.47978264 540.716803,0.120714925 C606.19977,6.18362122 623.17608,79.0939818 623.437404,117.499126 C623.700727,156.198027 608.864419,345.944267 608.864419,345.944267 C608.864419,345.944267 606.132748,346.979046 601.117087,348.87377 C601.071047,349.351189 598.155242,350.401631 592.854506,352.311778 L591.951098,363.553169 Z" id="Path-6"></path>
                </g>
            </g>
            <g id="Mailbox-" sketch:type="MSShapeGroup">
                <g id="Carta-Copy" transform="translate(0.000000, 1014.000000)">
                    <path d="M151.406254,229.272194 L515.01952,117.74486 L348.722645,0.10803768 L0.492187418,90.3027553 L151.406254,229.272194 Z" id="Path-7-Copy" fill="#D8D8D8" filter="url(#filter-1)"></path>
                    <path d="M434.994935,80.1269233 L254.415851,132.106339 L264.712562,140.526298 L448.558708,87.4139931 L434.994935,80.1269233 Z" id="Path-10-Copy" fill="#9B9B9B"></path>
                    <path d="M414.921052,65.5291594 L239.139675,117.885086 L248.638883,126.238599 L427.69183,72.7439394 L414.921052,65.5291594 Z" id="Path-10-Copy-3" fill="#9B9B9B"></path>
                    <path d="M456.425726,94.8552232 L271.010571,146.43941 L282.123055,154.934721 L470.799529,102.222863 L456.425726,94.8552232 Z" id="Path-10-Copy-2" fill="#9B9B9B"></path>
                    <g id="Atomo-Copy" transform="translate(54.000000, 80.000000)">
                        <path d="M22.8017155,31.8961182 C35.3947553,31.8961182 45.603431,27.1145113 45.603431,21.2161003 C45.603431,15.3176893 35.3947553,10.5360824 22.8017155,10.5360824 C10.2086758,10.5360824 0,15.3176893 0,21.2161003 C0,27.1145113 10.2086758,31.8961182 22.8017155,31.8961182 Z" id="Oval-32-Copy-8" stroke="#FFFFFF"></path>
                        <path d="M31.550274,27.3419069 C38.7733449,17.0262927 40.7119377,5.92121799 35.8802423,2.53802842 C31.0485468,-0.845161162 21.2762279,4.77467942 14.053157,15.0902937 C6.83008614,25.4059079 4.89149334,36.5109826 9.72318879,39.8941722 C14.5548842,43.2773618 24.3272032,37.6575212 31.550274,27.3419069 Z" id="Oval-32-Copy-6" stroke="#FFFFFF"></path>
                        <path d="M31.550274,15.0902937 C24.3272032,4.77467942 14.5548842,-0.845161162 9.72318879,2.53802842 C4.89149334,5.92121799 6.83008614,17.0262927 14.053157,27.3419069 C21.2762279,37.6575212 31.0485468,43.2773618 35.8802423,39.8941722 C40.7119377,36.5109826 38.7733449,25.4059079 31.550274,15.0902937 Z" id="Oval-32-Copy-7" stroke="#FFFBFB"></path>
                        <g id="Centro-atomo-Copy-2" transform="translate(14.001547, 11.342121)">
                            <g id="Atom-blue-Copy" transform="translate(9.109440, 2.418117)">
                                <path d="M4.21733333,8.63613309 C6.54650221,8.63613309 8.43466666,6.70286885 8.43466666,4.31806655 C8.43466666,1.93326424 6.54650221,0 4.21733333,0 C1.88816445,0 0,1.93326424 0,4.31806655 C0,6.70286885 1.88816445,8.63613309 4.21733333,8.63613309 Z" id="Oval-11" stroke="#CCCCCC" fill="#DDDDDD"></path>
                                <path d="M0.843466769,1.67609212 C1.56253817,0.298135859 2.93644308,-0.633316427 4.51313863,-0.633316427 C6.83421668,-0.633316427 8.71582221,1.38525637 8.71582221,3.87529211 C8.71582221,5.31763577 8.0844944,6.6017913 7.10212053,7.42707446 C7.44160526,6.77651992 7.63513215,6.02644275 7.63513215,5.22787467 C7.63513215,2.73783893 5.75352662,0.719266134 3.43244857,0.719266134 C2.45584609,0.719266134 1.55704509,1.07662172 0.843466666,1.67609232 L0.843466769,1.67609212 Z" id="Oval-11" opacity="0.49504431" fill="url(#linearGradient-2)"></path>
                            </g>
                            <g id="Atom-blue" transform="translate(0.000000, 2.993859)">
                                <ellipse id="Oval-11" stroke="#CCCCCC" fill="#DDDDDD" cx="4.21733333" cy="4.31806655" rx="4.21733333" ry="4.31806655"></ellipse>
                                <path d="M0.843466769,1.67609212 C1.56253817,0.298135859 2.93644308,-0.633316427 4.51313863,-0.633316427 C6.83421668,-0.633316427 8.71582221,1.38525637 8.71582221,3.87529211 C8.71582221,5.31763577 8.0844944,6.6017913 7.10212053,7.42707446 C7.44160526,6.77651992 7.63513215,6.02644275 7.63513215,5.22787467 C7.63513215,2.73783893 5.75352662,0.719266134 3.43244857,0.719266134 C2.45584609,0.719266134 1.55704509,1.07662172 0.843466666,1.67609232 L0.843466769,1.67609212 Z" id="Oval-11" opacity="0.49504431" fill="url(#linearGradient-2)"></path>
                            </g>
                            <g id="Atom-red-Copy" transform="translate(0.000000, 8.636133)">
                                <ellipse id="Oval-11" fill="#CCCCCC" cx="4.21733333" cy="4.31806655" rx="4.21733333" ry="4.31806655"></ellipse>
                                <path d="M0.843466769,1.67609212 C1.56253817,0.298135859 2.93644308,-0.633316427 4.51313863,-0.633316427 C6.83421668,-0.633316427 8.71582221,1.38525637 8.71582221,3.87529211 C8.71582221,5.31763577 8.0844944,6.6017913 7.10212053,7.42707446 C7.44160526,6.77651992 7.63513215,6.02644275 7.63513215,5.22787467 C7.63513215,2.73783893 5.75352662,0.719266134 3.43244857,0.719266134 C2.45584609,0.719266134 1.55704509,1.07662172 0.843466666,1.67609232 L0.843466769,1.67609212 Z" id="Oval-11" opacity="0.49504431" fill="url(#linearGradient-2)"></path>
                            </g>
                            <g id="Atom" transform="translate(4.217333, 0.000000)">
                                <ellipse id="Oval-11" fill="#CCCCCC" cx="4.21733333" cy="4.31806655" rx="4.21733333" ry="4.31806655"></ellipse>
                                <path d="M0.843466769,1.67609212 C1.56253817,0.298135859 2.93644308,-0.633316427 4.51313863,-0.633316427 C6.83421668,-0.633316427 8.71582221,1.38525637 8.71582221,3.87529211 C8.71582221,5.31763577 8.0844944,6.6017913 7.10212053,7.42707446 C7.44160526,6.77651992 7.63513215,6.02644275 7.63513215,5.22787467 C7.63513215,2.73783893 5.75352662,0.719266134 3.43244857,0.719266134 C2.45584609,0.719266134 1.55704509,1.07662172 0.843466666,1.67609232 L0.843466769,1.67609212 Z" id="Oval-11" opacity="0.49504431" fill="url(#linearGradient-2)"></path>
                            </g>
                            <g id="Atom-blue-Copy-3" transform="translate(4.161102, 11.054250)">
                                <ellipse id="Oval-11" stroke="#CCCCCC" fill="#DDDDDD" cx="4.21733333" cy="4.31806655" rx="4.21733333" ry="4.31806655"></ellipse>
                                <path d="M0.843466769,1.67609212 C1.56253817,0.298135859 2.93644308,-0.633316427 4.51313863,-0.633316427 C6.83421668,-0.633316427 8.71582221,1.38525637 8.71582221,3.87529211 C8.71582221,5.31763577 8.0844944,6.6017913 7.10212053,7.42707446 C7.44160526,6.77651992 7.63513215,6.02644275 7.63513215,5.22787467 C7.63513215,2.73783893 5.75352662,0.719266134 3.43244857,0.719266134 C2.45584609,0.719266134 1.55704509,1.07662172 0.843466666,1.67609232 L0.843466769,1.67609212 Z" id="Oval-11" opacity="0.49504431" fill="url(#linearGradient-3)"></path>
                            </g>
                            <g id="Atom-red" transform="translate(9.109440, 8.636133)">
                                <ellipse id="Oval-11" fill="#CCCCCC" cx="4.21733333" cy="4.31806655" rx="4.21733333" ry="4.31806655"></ellipse>
                                <path d="M0.843466769,1.67609212 C1.56253817,0.298135859 2.93644308,-0.633316427 4.51313863,-0.633316427 C6.83421668,-0.633316427 8.71582221,1.38525637 8.71582221,3.87529211 C8.71582221,5.31763577 8.0844944,6.6017913 7.10212053,7.42707446 C7.44160526,6.77651992 7.63513215,6.02644275 7.63513215,5.22787467 C7.63513215,2.73783893 5.75352662,0.719266134 3.43244857,0.719266134 C2.45584609,0.719266134 1.55704509,1.07662172 0.843466666,1.67609232 L0.843466769,1.67609212 Z" id="Oval-11" opacity="0.49504431" fill="url(#linearGradient-2)"></path>
                            </g>
                            <g id="Atom-blue-Copy-4" transform="translate(4.161102, 4.318067)">
                                <ellipse id="Oval-11" stroke="#CCCCCC" fill="#DDDDDD" cx="4.21733333" cy="4.31806655" rx="4.21733333" ry="4.31806655"></ellipse>
                                <path d="M0.843466769,1.67609212 C1.56253817,0.298135859 2.93644308,-0.633316427 4.51313863,-0.633316427 C6.83421668,-0.633316427 8.71582221,1.38525637 8.71582221,3.87529211 C8.71582221,5.31763577 8.0844944,6.6017913 7.10212053,7.42707446 C7.44160526,6.77651992 7.63513215,6.02644275 7.63513215,5.22787467 C7.63513215,2.73783893 5.75352662,0.719266134 3.43244857,0.719266134 C2.45584609,0.719266134 1.55704509,1.07662172 0.843466666,1.67609232 L0.843466769,1.67609212 Z" id="Oval-11" opacity="0.49504431" fill="url(#linearGradient-2)"></path>
                            </g>
                        </g>
                        <g id="Atom-blue-Copy-11" transform="translate(25.022844, 37.135372)">
                            <ellipse id="Oval-11" stroke="#F3F3F3" fill="#FFFFFF" cx="2.12272444" cy="2.17342683" rx="2.12272444" ry="2.17342683"></ellipse>
                            <path d="M2.19635645,0.0350917873 C3.22206353,0.0350917873 4.13406027,1.0487646 4.20995958,1.99530771 C4.2658193,2.69193629 4.06919551,3.32290162 3.574734,3.73829415 C3.74560798,3.41084836 3.84301651,3.03330952 3.84301651,2.63136358 C3.84301651,1.3780456 2.89594173,0.362030621 1.72766578,0.362030621 C1.2361092,0.362030621 0.800462317,0.594550332 0.441294511,0.896283868 C0.890162283,0.362030614 1.40275302,0.0350917873 2.19635645,0.0350917873 Z" id="Oval-11" opacity="0.49504431" fill="url(#linearGradient-4)"></path>
                        </g>
                        <g id="Atom-blue-Copy-13" transform="translate(25.022844, 0.000000)">
                            <ellipse id="Oval-11" stroke="#E9EBEA" fill="#FFFFFF" cx="2.12272444" cy="2.17342683" rx="2.12272444" ry="2.17342683"></ellipse>
                            <path d="M2.19635645,0.0350917873 C3.22206353,0.0350917873 4.13406027,1.0487646 4.20995958,1.99530771 C4.2658193,2.69193629 4.06919551,3.32290162 3.574734,3.73829415 C3.74560798,3.41084836 3.84301651,3.03330952 3.84301651,2.63136358 C3.84301651,1.3780456 2.89594173,0.362030621 1.72766578,0.362030621 C1.2361092,0.362030621 0.800462317,0.594550332 0.441294511,0.896283868 C0.890162283,0.362030614 1.40275302,0.0350917873 2.19635645,0.0350917873 Z" id="Oval-11" opacity="0.49504431" fill="url(#linearGradient-4)"></path>
                        </g>
                        <g id="Atom-blue-Copy-12" transform="translate(0.281156, 13.817813)">
                            <ellipse id="Oval-11" stroke="#DDDDDD" fill="#FFFFFF" cx="2.12272444" cy="2.17342683" rx="2.12272444" ry="2.17342683"></ellipse>
                            <path d="M2.19635645,0.0350917873 C3.22206353,0.0350917873 4.13406027,1.0487646 4.20995958,1.99530771 C4.2658193,2.69193629 4.06919551,3.32290162 3.574734,3.73829415 C3.74560798,3.41084836 3.84301651,3.03330952 3.84301651,2.63136358 C3.84301651,1.3780456 2.89594173,0.362030621 1.72766578,0.362030621 C1.2361092,0.362030621 0.800462317,0.594550332 0.441294511,0.896283868 C0.890162283,0.362030614 1.40275302,0.0350917873 2.19635645,0.0350917873 Z" id="Oval-11" opacity="0.49504431" fill="url(#linearGradient-4)"></path>
                        </g>
                    </g>
                </g>
                <g id="Mailbox" transform="translate(132.000000, 0.000000)">
                    <g id="Base" transform="translate(364.000000, 385.000000)">
                        <path d="M88.7578125,614.398438 L143.410156,576.496094 L177.597656,33.0898438 L111.257273,50.875 L88.7578125,614.398438 Z" id="Path-6" fill="#533927"></path>
                        <path d="M10.6640625,26.8398438 L0.86328125,566.824219 L90.0195312,614.773438 L114.785156,1 L10.6640625,26.8398438 Z" id="Path-5" fill="#6D4C34"></path>
                    </g>
                    <path d="M262.621094,443.738281 L320.71875,499.472656 L725.941406,374.675781 L729.167969,343.511719 L665.359375,303.199219 L262.621094,443.738281 Z" id="Path-4" fill="#4A4A4A"></path>
                    <path d="M286.839844,496.242187 C209.146208,441.54205 141.621094,393.160156 141.621094,393.160156 L119.871094,158.234375 C119.871094,158.234375 99.0117169,21.4335939 176.746092,31.3281248 C254.480467,41.2226556 274.867186,204.992184 274.867186,204.992184 C274.867186,204.992184 292.582029,290.261715 286.839844,496.242187 Z" id="Path-2" stroke="#979797" fill="#7C7676"></path>
                    <path d="M288,494.589844 L126.859362,652.816406 C126.859362,652.816406 68.468738,689.933594 22.4843619,652.816406 C-23.5000143,615.699219 15.8867056,558.039062 15.8867056,558.039062 L171.093735,414.445312 L288,494.589844 Z" id="Path-12" fill="#5F5A5A"></path>
                    <path d="M31.4589844,215.345703 L62.1738281,447.634766 L493.783203,368.080078 L474.033203,158.763672 L31.4589844,215.345703 Z" id="Path-7" stroke="#979797" fill="#D8D8D8"></path>
                    <g id="Carta" transform="translate(56.000000, 173.000000)">
                        <path d="M0.823169626,57.3457031 L31.5380134,289.634766 L463.147388,210.080078 L443.397388,0.763671875 L0.823169626,57.3457031 Z" id="Path-7-Copy" fill="#D8D8D8" filter="url(#filter-5)"></path>
                        <path d="M176.978516,159.722656 L178.072266,173.431641 L291.345703,156.240234 L291.345703,144.828125 L176.978516,159.722656 Z" id="Path-10" fill="#7C7676"></path>
                        <path d="M177.978516,177.722656 L179.072266,191.431641 L292.345703,174.240234 L292.345703,162.828125 L177.978516,177.722656 Z" id="Path-10-Copy" fill="#7C7676"></path>
                        <path d="M26.3496094,78.6445312 L67.5195312,73.53125 L74.4257812,121.720703 L33.7597656,127.296875 L26.3496094,78.6445312 Z" id="Path-9" fill="#7C7676"></path>
                    </g>
                    <path d="M286.599609,497.78125 C404.458984,465.761734 746.804688,356.496094 746.804688,356.496094 C746.804688,356.496094 766.558594,160.808594 766.558594,120.902344 C766.558594,80.9960937 746.0625,4.99609375 666.214844,0.03125 C574.203125,4.99609376 539.84375,13.2929687 172.4375,31.4179688 C302.957031,55.6875 286.599609,423.664078 286.599609,497.78125 Z" id="Path-1" fill="#9F9DA0"></path>
                    <path d="M208.01953,31.5351562 L667.832031,0.1171875 C667.832031,0.1171875 729.007811,12.1054696 749.933594,72.7070312 C757.355467,105.191406 769.542967,96.5546875 737.230467,360.019531 C737.230467,360.019531 303.027342,491.851562 305.210936,491.851563 C294.374999,209.107422 293.398783,241.093211 286.017577,183.617188 C271.066405,67.1953125 208.01953,31.5351562 208.01953,31.5351562 Z" id="Path-13" opacity="0.110890858" fill="#3F3E3E"></path>
                </g>
                <g id="Apertura" transform="translate(539.000000, 223.000000)">
                    <path d="M0.26953125,7.08398437 L34.3007812,0.427734375 L34.3007812,44.3027344 L0.26953125,52.6972656 L0.26953125,7.08398437 Z" id="Rectangle-1" fill="#757376"></path>
                    <path d="M202.693359,52.6972656 L55.9042969,33.3007812 L42.953125,27.7050781 L34.3007812,27.7050781 L34.3007812,11.9960938 L60.2929688,14.9609375 L209.787109,35.2460938 L202.693359,52.6972656 Z" id="Path-3" fill="#757376"></path>
                    <path d="M189.635263,40.0799417 C219.765124,34.9190559 242.557604,29.3924079 242.557604,29.3924079 L242.557604,146.195028 L187.580691,157.2467 C187.580691,157.2467 189.635263,99.9997077 189.635263,40.0799417 Z" id="Rectangle-2" fill="#91BEAE" transform="translate(215.069148, 93.319554) rotate(18.000000) translate(-215.069148, -93.319554) "></path>
                </g>
                <g id="Remaches" transform="translate(542.000000, 228.000000)">
                    <ellipse id="Oval-1" fill="#9F9DA0" cx="2.5" cy="7.5" rx="2.5" ry="3.5"></ellipse>
                    <ellipse id="Oval-1-Copy" fill="#9F9DA0" cx="26.5" cy="3.5" rx="2.5" ry="3.5"></ellipse>
                    <ellipse id="Oval-1-Copy-2" fill="#9F9DA0" cx="2.5" cy="39.5" rx="2.5" ry="3.5"></ellipse>
                    <ellipse id="Oval-1-Copy-3" fill="#9F9DA0" cx="26.5" cy="34.5" rx="2.5" ry="3.5"></ellipse>
                    <ellipse id="Oval-5" fill="#757376" transform="translate(208.500000, 38.000000) rotate(15.000000) translate(-208.500000, -38.000000) " cx="208.5" cy="38" rx="2.5" ry="4"></ellipse>
                    <ellipse id="Oval-5-Copy" fill="#757376" transform="translate(249.500000, 44.000000) rotate(15.000000) translate(-249.500000, -44.000000) " cx="249.5" cy="44" rx="2.5" ry="4"></ellipse>
                </g>
            </g>
            <path d="M114.293178,1091.73088 L127.574961,1101.11906 L120.703401,1102.99025 L116.889164,1100.25758 L113.329105,1101.22642 L117.163668,1103.94813 L110.341883,1105.78131 L96.6931105,1096.59914 L98.5527658,1094.32927 L108.964074,1091.43814 L114.293178,1091.73088 Z M109.209984,1095.06882 L105.849603,1095.99507 L109.690102,1098.6306 L113.269174,1097.65065 L109.209984,1095.06882 Z M135.386961,1098.97526 L124.343488,1090.86692 L118.866024,1092.39285 L115.044742,1089.73964 L132.989266,1084.69867 L136.670187,1087.41763 L131.417374,1088.88962 L142.335692,1097.05591 L135.386961,1098.97526 Z M157.518568,1089.01967 L150.495796,1083.51325 L146.770259,1084.56032 L153.839733,1090.04896 L157.518568,1089.01967 Z M155.745817,1080.09475 L166.418653,1088.49738 L164.513013,1090.8762 L153.95152,1093.8271 L148.730577,1093.44135 L137.75729,1085.15724 L139.608318,1082.83314 L150.39954,1079.7907 L155.745817,1080.09475 Z M175.500206,1072.74225 L183.039201,1070.64185 L188.403192,1070.96175 L200.034105,1080.93694 L192.715957,1082.97904 L182.813729,1074.45644 L178.970411,1075.52801 L188.952797,1084.03119 L181.672366,1086.06939 L171.536939,1077.60625 L167.98648,1078.60105 L178.194032,1087.04391 L171.027642,1089.05194 L158.649056,1079.27827 L160.633372,1076.90947 L168.06037,1074.82413 L173.415714,1075.13597 L175.500206,1072.74225 Z M209.553204,1078.29141 L202.164757,1080.34361 L189.086853,1068.96501 L196.732819,1066.85694 L209.553204,1078.29141 Z M220.955827,1062.07408 L224.09033,1064.96495 L216.341411,1067.05909 L214.689043,1065.68484 L210.977927,1066.69294 L217.175184,1072.41131 L220.832302,1071.41157 L219.467451,1069.95015 L227.158809,1067.86398 L230.215179,1070.79812 L227.84656,1073.25631 L216.403955,1076.39722 L211.185396,1076.00944 L201.454764,1067.36369 L203.741456,1064.93787 L215.525479,1061.74396 L220.955827,1062.07408 Z M140.098982,1109.70633 L136.43348,1106.8567 L133.152785,1107.74576 L136.840089,1110.58718 L140.098982,1109.70633 Z M125.846945,1105.88978 L136.257873,1103.05944 L141.459629,1103.5034 L148.736065,1109.22392 L147.075382,1111.55154 L140.326852,1113.37709 L144.033101,1116.2869 L137.360447,1118.06885 L124.264597,1108.16925 L125.846945,1105.88978 Z M162.703345,1107.28029 L155.783765,1101.52116 L152.221172,1102.50725 L159.191715,1108.2521 L162.703345,1107.28029 Z M160.745856,1098.14714 L171.243801,1106.9262 L169.479153,1109.31337 L159.407205,1112.10327 L154.367812,1111.59742 L143.535983,1102.9117 L145.256568,1100.58675 L155.584909,1097.72498 L160.745856,1098.14714 Z M185.858846,1097.38519 L190.623847,1101.47249 L188.72933,1103.9027 L178.311855,1106.84152 L173.295896,1106.35248 L170.265371,1103.77801 L177.190372,1101.83841 L178.460573,1102.85767 L181.791369,1101.9208 L179.910864,1100.05484 L172.754998,1102.06259 L167.867666,1101.54941 L162.884317,1097.55098 L164.724693,1095.17674 L175.18455,1092.24853 L180.578038,1092.59681 L183.311666,1095.2123 L176.296805,1097.18276 L175.215329,1096.12157 L171.79387,1097.08033 L173.727364,1098.89515 L180.747158,1096.92494 L185.858846,1097.38519 Z M200.068194,1100.68366 L190.459721,1091.83838 L184.939322,1093.39087 L181.564625,1090.459 L199.700872,1085.37287 L202.89477,1088.34145 L197.593792,1089.83168 L207.030647,1098.70063 L200.068194,1100.68366 Z M227.410607,1085.672 L231.700163,1089.80915 L229.497607,1092.29704 L218.683745,1095.37768 L213.706982,1094.91697 L210.964961,1092.2992 L218.152429,1090.26685 L219.307219,1091.30122 L222.767075,1090.32212 L221.101556,1088.42718 L213.667887,1090.52406 L208.815668,1090.02758 L204.26875,1085.94614 L206.398697,1083.4997 L217.285781,1080.46703 L222.679295,1080.80806 L225.112896,1083.46746 L217.81121,1085.50932 L216.850012,1084.42843 L213.291199,1085.42438 L215.020941,1087.27402 L222.321816,1085.22594 L227.410607,1085.672 Z" id="Atomic-" fill="#9B9B9B" sketch:type="MSShapeGroup"></path>
        </g>
    </g>
</svg>